<svg xmlns="http://www.w3.org/2000/svg" version="1.1" width="600px" height="600px" viewBox="0 0 200 200" style="overflow:hidden!important;"><g id="svga-group-wrapper"><g id="svga-group-backs-single"><path id="SvgjsPath12446" d="M0 0h200v200H0V0z" fill="#ecf0f1" stroke-width="none" opacity="1"></path><path id="SvgjsPath12447" d="m156.3 131.2-16.8-.4-17 .6c-.7 0-8.8-.3-9.4-.2-9.8 1.2-14.9.6-20.8 0l-10.9-.1c-1.5 0-3.5-1.6-3.5-3.6l.1-5.6c1-5.5-.2-9.4-.2-14.7l.2-3.6c0-1.5 2.3-2.3 5.1-2.4l7.5.2c3.7-.1 9.6.8 12 .3l11-.5c3.8-.2 10.8-.8 20.5-.5 0 0 10.3 0 19.3.2l5.6-.1c1.5 0 3.2 1.2 3.2 2.7v5c-.1 3.3.1 5.9.1 10.1l.2 5.5-.4 3.4c-.1 2.5-3.8 4.1-5.8 3.7zm-43.4-33.4-16.8-.4-17 .6c-.7 0-8.8-.3-9.4-.2-9.8 1.2-14.9.6-20.8 0L38 97.7c-1.5 0-3.5-1.6-3.5-3.6v-5.6c1-5.5-.2-9.4-.2-14.7l.2-3.6c0-1.5 2.3-2.3 5.1-2.4l7.5.2c3.7-.1 9.6.8 12 .3l11-.5c3.8-.2 10.8-.8 20.5-.5 0 0 10.3 0 19.3.2l5.6-.1c1.5 0 3.2 1.2 3.2 2.7v5c-.1 3.3.1 5.9.1 10.1l.2 5.5-.4 3.4c0 2.5-3.6 4.1-5.7 3.7zm43.4-32.4-16.8-.4-17 .6c-.7 0-8.8-.3-9.4-.2-9.8 1.2-14.9.6-20.8 0l-10.9-.1c-1.5 0-3.5-1.6-3.5-3.6l.1-5.6c1-5.5-.2-9.4-.2-14.7l.2-3.6c0-1.5 2.3-2.3 5.1-2.4l7.5.2c3.7-.1 9.6.8 12 .3l11-.5c3.8-.2 10.8-.8 20.5-.5 0 0 10.3 0 19.3.2l5.6-.1c1.5 0 3.2 1.2 3.2 2.7v5c-.1 3.3.1 5.9.1 10.1l.2 5.5-.3 3.4c-.2 2.5-3.9 4.1-5.9 3.7zm-43.4-33.3-16.8-.4-17 .6c-.7 0-8.8-.3-9.4-.2-9.8 1.2-14.9.6-20.8 0L38 32c-1.5 0-3.5-1.6-3.5-3.6v-5.6c1-5.5-.2-9.4-.2-14.7l.2-3.6c0-1.5 2.3-2.3 5.1-2.4l7.5.2c3.7-.1 9.6.8 12 .3l11-.5c3.8-.2 10.8-.8 20.5-.5 0 0 10.3 0 19.3.2l5.6-.1c1.5 0 3.2 1.2 3.2 2.7v5c-.1 3.3.1 5.9.1 10.1l.2 5.5-.4 3.4c0 2.5-3.6 4-5.7 3.7zm43.4 166.2-16.8-.4-17 .6c-.7 0-8.8-.3-9.4-.2-9.8 1.2-14.9.6-20.8 0l-10.9-.1c-1.5 0-3.5-1.6-3.5-3.6l.1-5.6c1-5.5-.2-9.4-.2-14.7l.2-3.6c0-1.5 2.3-2.3 5.1-2.4l7.5.2c3.7-.1 9.6.8 12 .3l11-.5c3.8-.2 10.8-.8 20.5-.5 0 0 10.3 0 19.3.2l5.6-.1c1.5 0 3.2 1.2 3.2 2.7v5c-.1 3.3.1 5.9.1 10.1l.2 5.5-.4 3.4c-.1 2.5-3.8 4.1-5.8 3.7zM112.9 165l-16.8-.4-17 .6c-.7 0-8.8-.3-9.4-.2-9.8 1.2-14.9.6-20.8 0l-10.9-.1c-1.5 0-3.5-1.6-3.5-3.6v-5.6c1-5.5-.2-9.4-.2-14.7l.2-3.6c0-1.5 2.3-2.3 5.1-2.4l7.5.2c3.7-.1 9.6.8 12 .3l11-.4c3.8-.2 10.8-.8 20.5-.5 0 0 10.3 0 19.3.2l5.6-.1c1.5 0 3.2 1.2 3.2 2.7v5c-.1 3.3.1 5.9.1 10.1l.2 5.5-.4 3.4c0 2.4-3.6 4-5.7 3.6zM25.7 97.8c2.1.4 5.7-1.2 5.7-3.7l.4-3.4-.2-5.5c.1-4.2-.1-6.8-.1-10.1v-5c0-1.5-1.8-2.7-3.2-2.7l-5.6.1c-9-.2-19.3-.2-19.3-.2H.1v30.5l8.8-.3 16.8.3zm5.8 39.5c0-1.5-1.8-2.7-3.2-2.7l-5.6.1c-9-.2-19.3-.2-19.3-.2-1.2 0-2.2-.1-3.3-.1v30.5l8.8-.3 16.8.4c2.1.4 5.7-1.2 5.7-3.7l.4-3.4-.2-5.5c.1-4.2-.1-6.8-.1-10.1v-5zM14.9 35.9c-2.4.4-8.3-.4-12-.3L0 35.5v29.9l4.6.1c5.9.6 11 1.2 20.8 0 .7-.1 8.8.2 9.5.2l17-.6 16.8.4c2.1.4 5.7-1.2 5.7-3.7l.4-3.4-.2-5.5c.1-4.2-.1-6.8-.1-10.1v-5c0-1.5-1.8-2.7-3.2-2.7l-5.6.1c-9-.2-19.3-.2-19.3-.2-9.7-.3-16.7.3-20.5.5l-11 .4zm59.6 72.6v-5c0-1.5-1.8-2.7-3.2-2.7l-5.6.1c-9-.2-19.3-.2-19.3-.2-9.7-.3-16.7.3-20.5.5l-11 .5c-2.4.4-8.3-.4-12-.3l-2.9-.1v29.9l4.6.1c5.9.6 11 1.2 20.8 0 .7-.1 8.8.2 9.5.2l17-.6 16.8.4c2.1.4 5.7-1.2 5.7-3.7l.4-3.4-.2-5.5c0-4.2-.2-6.8-.1-10.2zm0 67.2v-5c0-1.5-1.8-2.7-3.2-2.7l-5.6.1c-9-.2-19.3-.2-19.3-.2-9.7-.3-16.7.3-20.5.5l-11 .5c-2.4.4-8.3-.4-12-.3l-2.9-.2v29.9l4.6.1c5.9.6 11 1.2 20.8 0 .7-.1 8.8.2 9.5.2l17-.6 16.8.4c2.1.4 5.7-1.2 5.7-3.7l.4-3.4-.2-5.5c0-4.2-.2-6.8-.1-10.1zM0 32l8.8-.3 16.8.4c2.1.4 5.7-1.2 5.7-3.7l.4-3.4-.2-5.5c.1-4.2-.1-6.8-.1-10.1v-5c0-1.5-1.8-2.7-3.2-2.7l-5.6.1c-9-.2-19.3-.2-19.3-.2-1.1 0-2.2-.1-3.3-.1V32zm169.4 33.3 10.9.1c5.7.6 10.4.6 19.7-.5V35.4l-9-.4c-2.4.4-7.8-.1-11.5 0l-8.4.4c-2.8 0-5.1.9-5.1 2.4l-.2 3.6c0 5.3-1 10.2.2 14.7l-.1 5.6c0 2 2 3.6 3.5 3.6zm0 65.8 10.9.1c5.7.6 10.4.5 19.7-.6v-29.5l-9.1-.4c-2.4.4-7.8-.1-11.5 0l-8.4.4c-2.8.1-5.1.9-5.1 2.4l-.2 3.6c0 5.3-1 10.2.2 14.7l-.1 5.6c.1 2 2.1 3.7 3.6 3.7zM122.1 22.7l-.1 5.6c0 2 2 3.6 3.5 3.6l10.9.1c5.9.6 11 1.2 20.8 0 .7-.1 8.8.2 9.4.2l17-.6 16.4.4V1.8h-2.6c-9-.2-19.3-.2-19.3-.2-9.7-.3-16.7.3-20.5.5l-11 .5c-2.4.4-8.3-.4-12-.3l-7.5-.3c-2.8 0-5.1.9-5.1 2.4l-.1 3.6c0 5.4 1.2 9.2.2 14.7zm0 65.8-.1 5.6c0 2 2 3.6 3.5 3.6l10.9.1c5.9.6 11 1.2 20.8 0 .7-.1 8.8.2 9.4.2l17-.6 16.4.3V67.5l-2.6.1c-9-.2-19.3-.2-19.3-.2-9.7-.3-16.7.3-20.5.5l-11 .5c-2.4.4-8.3-.4-12-.3l-7.5-.2c-2.8.1-5.1.9-5.1 2.4l-.2 3.6c.1 5.2 1.3 9.1.3 14.6zm77.9 79.8-9.1-.4c-2.4.4-7.8-.1-11.5 0l-8.4.4c-2.8.1-5.1.9-5.1 2.4l-.2 3.6c0 5.3-1 10.2.2 14.7l-.1 5.6c0 2 2 3.6 3.5 3.6l10.9.1c5.7.6 10.4.5 19.7-.6l.1-29.4zm-16.4-3.7 16.4.4v-30.3l-2.6.1c-9-.2-19.3-.2-19.3-.2-9.7-.3-16.7.3-20.5.5l-11 .5c-2.4.4-8.3-.4-12-.3l-7.5-.2c-2.8.1-5.1.9-5.1 2.4l-.2 3.6c0 5.3 1.2 9.2.2 14.7l-.1 5.6c0 2 2 3.6 3.5 3.6l10.9.1c5.9.6 11 1.2 20.8 0 .7-.1 8.8.2 9.4.2l17.1-.7z" fill="#c6dce2" stroke-width="none" opacity="1"></path><path id="SvgjsPath12448" d="M34.5 22.7v5.6c0 2 2 3.6 3.5 3.6l10.9.1c5.9.6 11 1.2 20.8 0 .7-.1 8.8.2 9.4.2l17-.6 16.8.4c1.3.2 3.3-.3 4.5-1.4-.8 0-1.7-.3-2.6-.3-1.4 0-6.2-1.1-9.3-1.6-1.3-1.2-2.9-2-4.7-1.7-1.3.2-2.3.8-3.8 1-2.1.3-4.2-.1-6.3-.5-2.2-.4-4.2-.8-6.4-.8-.1 0-.1.1 0 .1 4.1.2 7.9 1.8 11.9 1.9 1.4 0 2.7-.5 4-.5.9 0 1.6.1 2.3.3-6.4 0-22.2.9-24.5 1.6-2.7.7-12.6.7-15.9-.7-3.4-1.5-20.3 0-21.7-.2-1.5-.2-1.7-2.7-1-7 .2-1.2.2-2.6.1-4.2.5.2.9.3 1.4.3 1.4 0 3-.9 4.2-1.5 2.2-1.1 4.4-2.2 6.5-3.5.1-.1 0-.2-.1-.2-2.5 1.3-5 2.4-7.7 3.2-1.3.4-2.7 1.1-4.1.5-.1 0-.2-.1-.3-.1-.3-4.1-1.2-8.7-1.5-10.9-.1-.7-.1-1.4 0-2 3.9-1.4 8.2 1 12.1 1.5 3.2.4 6.3.1 9.5-.4.2 0 .1-.3 0-.3-2.5.2-5 .4-7.6.1-2.7-.3-5.2-1.3-7.8-1.8-2-.4-3.9-.7-5.7 0 .1-.3.2-.6.3-.8-2.4.2-4.2 1-4.2 2.3L34.3 8c0 5.4 1.2 9.2.2 14.7zm71.2 39.6c-1.9-1-8.3.3-10.8 1-2.3.6-8.8-.6-11.6-1.8 2.3-.1 4.6-.5 6.4-1.7.1-.1.1-.4-.1-.4-2.6.3-4.9 1.1-7.5 1.3-1.5-1.7-1.2-7.2-.9-9.9.3-2.9-1.3-7.3-1.6-10.5-.2-1.8-.1-3.3.1-4.4-1.1.4-1.8 1-1.8 1.8l-.2 3.6c0 5.3 1.2 9.2.2 14.7l-.1 5.6c0 2 2 3.6 3.5 3.6l10.9.1c5.9.6 11 1.2 20.8 0 .7-.1 8.8.2 9.4.2l17-.6 16.8.4c1.5.3 3.8-.5 5-1.9h-.5c-2.2 0-3.5-1-5.4-1.6-.6-.2-2.2-.1-4.1.2-1.7-1.6-4.1-2.3-6.4-2-1.9.2-3.5 1.3-5.4 1.4-2 0-3.4-.7-5.4-.3-.1 0-.1.2 0 .2 2.5 0 4.9 1 7.3.4 3.4-.8 5.6-.9 8.6.4-3.7.6-8.1 1.4-9.6 1.2-2.6-.3-4.1.3-7 .3s-19.8-.3-22-.6c-2.1-.1-3.7.2-5.6-.7zm-1.2 33c-.4-.1-1.3-.1-2.5-.2.1-.5-.1-1.1-.5-1.4-.5-.4-1.6-.7-1.9.1-.1.2 0 .5.3.5s.7-.1 1-.1c.4.1.6.5.5.9-7.1-.1-22.9.5-25.5.5-3.1 0-16.7-.3-24.6.6s-12.5-2.3-13-3.4c-.1-.2-.2-.4-.2-.8 1.4-.4 2.9-.3 4.4-.2 2.1.1 4.2-.5 6.2-.3.8.1 1.4.6 2.2.4 1-.2 2-1.2 2.7-1.8 0 0 0-.1-.1-.1-1.3 1.1-1.8 1.5-3.4 1.2-.3-.1-.5-.5-.8-.5-2.2-.3-4.4.2-6.7-.1-1.7-.2-3.3-.3-4.7.2-.2-2.1-.2-5.2-.2-7.2 0-.4 0-.9-.1-1.4 2.9.4 5.8-2.4 8.7-2 .1 0 .1-.1 0-.2-1.7-.5-3.3.1-4.8.6 0-.1-.1-.2-.2-.2-1.4-.1-2.7 0-4-.3-.4-2.6-1.1-5.6-1.1-7.7 0-1.7-.6-2.8-1.3-3.5-.3.3-.5.7-.5 1.1l-.2 3.6c0 5.3 1.2 9.2.2 14.7v5.6c0 2 2 3.6 3.5 3.6l10.9.1c5.9.6 11 1.2 20.8 0 .7-.1 8.8.2 9.4.2l17-.6 16.8.4c1.6.3 4.1-.6 5.2-2.1-1.1.3-2.7.7-3.7.7-1.5.2-7.2-.4-9.8-.9zm13.8 34.8c-4.4-.3-7.3-.3-10.8-3.2-.1-.1-.3-.2-.4-.3 1-.2 2.1-.2 3.2.1 1 .3 1.9.8 3 .9 2.8.3 5.6-.5 8-1.7.4-.2.1-.8-.3-.7-1.8.4-3.5 1-5.4 1.2-2.2.3-3.5-.5-5.4-1.1.6.1 1.1.3 1.7.5.2.1.6-.2.3-.4-2.6-2.4-7.8-.6-10.8.1-5.4-.1-12.3 1.2-13.9 1.6-2.3.6-3.5.3-6.7-1.2s-.6-4.1 0-9.4c.1-.6.1-1 .1-1.4 3 2.9 7.2 4 11.3 3.1 2-.5 3.4-1.4 5.6-1.4 1.9 0 3.6.8 5.4 1.3 2.5.8 4.3 1.2 6.9.7.1 0 .1-.2 0-.2-4.6.5-8.4-2.5-12.9-2.6-1.8 0-3.4.7-5.2 1-4.2.8-7.8-.6-11-3.1-.1-2.4-1-2.3-1.9-5.1-.5-1.4-.9-2.9-1.2-4.2l-.1 2.4c0 5.3 1.2 9.2.2 14.7l-.1 5.6c0 2 2 3.6 3.5 3.6l10.9.1c5.9.6 11 1.2 20.8 0 .7-.1 8.8.2 9.4.2l17-.6 16.8.4c1.1.2 2.6-.2 3.8-.9-2-1.1-5.4-2.9-7.8-3.5-3.5-.9-6.7.6-11.4.9-4.7.5-18.2 2.9-22.6 2.6zm-14.1-4.4c1.1-.2 2.1-.4 3.2-.5-.6.2-1.1.5-1.7.8l-1.5-.3zm12.9 38.2c-.7-.1-1.4-.1-2-.1-1.5 0-3.5 0-6.5-.6-3.1-.6-9.4-.9-13.3-1.1s-16.3 1.5-18.5 1.3-6.1-.9-11.3-1.5c-5.2-.6-17.4.9-19.6 1.3-1.4.3-4-.3-5.8-1.7 1.2.1 2.4.1 3.6 0 .3 0 .4-.4.1-.5-1.4-.5-3.1-.5-4.6-.4-.4-.5-.7-1.1-.9-1.8-.6-3-.1-4.5 0-7.8 1.7 1.6 4.2 1.6 6.8 1.5 3.5-.1 5.9 1.2 8.9 2.3 2.9 1.1 5.7-.4 8.6.6.2.1.3-.3.1-.4-1.2-.4-1.6-.4-2.9-.4-2 0-3.6.6-5.6-.4-1.1-.5-2-1.6-3.1-2.2-3.8-1.9-10.2 1.4-12.9-2.9-.2-3.5-1.1-6.1-1.9-9.1-.4-1.6-.7-3.1-.6-4.3-.7.4-1.2.9-1.2 1.6l-.2 3.6c0 5.3 1.2 9.2.2 14.7v5.6c0 2 2 3.6 3.5 3.6l10.9.1c5.9.6 11 1.2 20.8 0 .7-.1 8.8.2 9.4.2l17-.6 16.8.4c1.2.3 2.9-.1 4.2-1zm39 32.9c-2.3-.2-9.7.5-14.4 0s-11.7-1.3-16.4-1.6-17.8.7-17.8.7-2.5-.4-6.5-.9-17.1.7-18.9-2c-1.1-1.6-.9-3-.6-4.7l1.2.6c1.1.4 2.2.4 3.3.5 1.7.2 3.2.7 4.8 1.2.2.1.4-.3.2-.4-1.3-1-2.5-1.5-4.2-1.8-1.7-.3-3.8-.2-5.2-1.2.2-.9.3-1.8.4-3 .1-1.1 0-2.1-.2-3.2.8.1 1.7.3 2.5.2.3 0 .3-.4.1-.5-.8-.2-1.8-.3-2.7-.4-.5-2.6-1.4-5.2-2.2-8.4-.3-1.3-.5-2.2-.6-2.9-.7.4-1.2.9-1.2 1.6l-.2 3.6c0 5.3 1.2 9.2.2 14.7l-.1 5.6c0 2 2 3.6 3.5 3.6l10.9.1c5.9.6 11 1.2 20.8 0 .7-.1 8.8.2 9.4.2l17-.6 16.8.4c1.4.2 3.6-.4 4.8-1.6-1.1 0-3 .4-4.7.2zm42.1-166.6c-1.7-1-7.7-.2-11.1 0s-16.7-.2-18.8 0-11.1-.7-14-1.2c-2.9-.5-14.2.2-17.6.7s-10.3-.7-10.5-2.7c-.2-1.9-.2-3.6.2-7.7.1-.5.1-1 .1-1.4.9.6 2.5.5 3.3.4 1-.1 1.9-.4 2.9-.6 3.3-.7 5.1-.1 8.2.6 5.6 1.4 11.2 1.5 17 1 .1 0 .1-.2 0-.2-6.5.2-12.2-.1-18.5-2.1-4.5-1.4-8.4.5-12.9-.4-.2-2.6-.9-4.5-1.3-7.2-.3-2.6 0-5.4.6-7.3-2.2.2-3.8 1-3.8 2.3l-.1 3.6c0 5.3 1.2 9.2.2 14.7l-.1 5.6c0 2 2 3.6 3.5 3.6l10.9.1c5.9.6 11 1.2 20.8 0 .7-.1 8.8.2 9.4.2l17-.6 16.4.3v-1.3c-.6.1-1.3-.1-1.8-.4zm-10.6 32.1c-1.9-.8-9.5-.2-13.2-.5.5-.1.9-.2 1.4-.3 1.2-.3 2.7-.7 3.5-1.6.1-.2.1-.5-.2-.5-1.2.1-2.2.8-3.3 1-1.3.3-2.6.4-3.8.7-1.7-.9-2.7-2.9-3.8-5.6-.9-2.1-.3-3.4.1-5 1.8-.1 3.7.6 5.5.5 2.7 0 5.2-.6 7.8.5.1 0 .1-.1.1-.1-2.4-1.3-4.8-.8-7.4-1-2.1-.1-3.9-.9-5.8-.8.1-.6.1-1.2.1-1.9-.3-3.2-1-8.6-.3-10.5.2-.6.2-1.2 0-1.7-1.4.4-2.3 1.1-2.3 2l-.2 3.6c0 5.3-1 10.2.2 14.7l-.1 5.6c0 2 2 3.6 3.5 3.6l10.9.1c5.7.9 10.4.9 19.7-.2v-2.8c-1.7 0-2.6.9-4.1 1.1-2 .3-6.1 0-8.3-.9zm7.6 32.4c0-.8-21.2.3-24.4 0s-4.5-.3-6.5-.8-26.9.8-30.6 1.4-7.7-1.4-8.5-3.1c-.8-1.5.3-5.4.3-8.7.3.2.6.4.9.5.6.2 1.3.3 2 .2 1.8-.2 3.4-1.3 5.2-1.4.1 0 .2-.2 0-.2-1.8-.2-3.4.3-5.1.6-1.2.2-2-.4-3-.8v-.1c-.3-3.4-1.1-7.1-2-9.9-.4-1.3-.7-2.4-1.1-3.2-.2.3-.4.6-.4 1l-.2 3.6c0 5.3 1.2 9.2.2 14.7l-.1 5.6c0 2 2 3.6 3.5 3.6l10.9.1c5.9.6 11 1.2 20.8 0 .7-.1 8.8.2 9.4.2l17-.6 16.3.3V96h-.3c-1.8.4-4.3-.4-4.3-1.3zm.2 32.3c-.8-.5-2.1-.2-2.7.5-.2.2-.1.3.1.4-6.8.5-14.9 1.5-16.2 1.3-2.1-.3-6.4-2.9-6.4-6.4v-.6c1.1.2 2.2.8 3.2.9.6.1 1.2.1 1.8-.1 1-.3 2-1.4 3.3-.8.2.1.4-.1.3-.3-1.1-1.9-3.4.1-4.9.1-1.4.1-2.6-.5-3.9-.6-.4-2.2-1.8-2.7-2.8-5.7-1.2-3.5.3-5 .3-9.1 0-2.2-.5-3.4-1.1-4.2-.3.3-.6.7-.6 1.1l-.2 3.6c0 5.3-1 10.2.2 14.7l-.1 5.6c0 2 2 3.6 3.5 3.6l10.9.1c5.7.6 10.4.5 19.7-.6v-3.1c-1 0-2.4 0-3.9.1 0-.1-.2-.3-.5-.5zm-2.1.9c.5-.1.9-.4 1.4-.4.2 0 .4.1.6.2-.7.1-1.3.1-2 .2zm-9.2 34.7c-.6-.2-2.6-.3-5-.4 0-.8 0-1.5-.1-2.2 0-.1-.2-.3-.3-.3-2.5-.5-5.9 0-7.9 1.6-.2.1 0 .4.2.3 1.5-.4 2.9-1 4.4-1.2.6-.1 1.5-.2 2.1 0 .5-.1.8.1 1 .7.1.4.1.7.2 1.1-5.7-.2-13.9-.1-15.4.2-.4.1-1.3.2-2.4.2-.8-.1-1.7-.1-2.4.1h-.1c-4.5.2-10.5.4-11.7.2-1.7-.2-2.6-.9-6.1-1.7s-12 .4-13.9 0-1.5-2.8-1.5-5.9c0-2.2.4-3.3.9-5 .6.5 1.4.8 2.1.9s1.7 0 2.5-.4c.4.1.8.2 1.2.2 1.9.1 3.9-.4 5.8-.3 2.7.1 5.3.6 8 .9.3 0 .4-.5.1-.5-3.3-1-6.8-1.7-10.2-1.5-2.8.1-3.9.7-6.7-1.1-.7-.4-1.3-1-2-1.5.2-2.9-1.5-4.5-2.1-6.6-.5-1.8-1.1-3.2-.8-5-1.1.4-1.9 1-1.9 1.9l-.2 3.6c0 5.3 1.2 9.2.2 14.7l-.1 5.6c0 2 2 3.6 3.5 3.6l10.9.1c5.9.6 11 1.2 20.8 0 .7-.1 8.8.2 9.4.2l17-.6 16.4.5v-1c-.7-.1-1.3-.3-1.8-.5-1.7-.9-12-.2-14.1-.9zm-57.5-14.4c.9.9 2 1.9 3.1 2.4-.5.1-1-.1-1.5-.2-.8-.2-1.3-.6-1.9-1.1.1-.2.2-.6.3-1.1zm66.4 47c-.7-.1-1.5-.1-2.2-.3-.9-.2-1.7-.6-2.4-1.2-.3-.3-.8.2-.5.5.2.2.5.4.8.6-3.2 0-6.9 1.2-9.5 1.3-1.5.1-3.3-.5-4.8-1.5.3-.1.6-.1.8-.2.3-.1.3-.6-.1-.6-.6 0-1.2 0-1.8.1-1.3-1.1-2.2-2.4-2.6-3.8-.7-3.4-1.4-2-2.5-6.1s-.5-4.3.2-9.4c.5-3.6-.4-4.3-1.4-5.4-.7.4-1.2.9-1.2 1.6l-.2 3.6c0 5.3-1 10.2.2 14.7l-.1 5.6c0 2 2 3.6 3.5 3.6l10.9.1c5.7.6 10.4.5 19.7-.6v-1.6c-2.6-.2-5-.4-6.8-.7.2-.2.2-.3 0-.3zM25.7 97.8c1 .2 2.3-.1 3.5-.7-1.7-.2-4-.7-6.2-1 0-.1-.1-.2-.2-.2-1.1-.6-1.7-.6-3-.6-2.6 0-4.3-1.3-6.5-2-3.1-1-6.4-.2-9.6-.1-.4 0-.5.6-.1.7 3.5.6 7-.7 10.3.9.5.3 1 .6 1.6.9-3.7.1-10 .3-15.5.5v1.6l8.8-.3 16.9.3zm-.3 33.4c.7-.1 8.8.2 9.4.2l17-.6 16.8.4c1.1.2 2.7-.2 3.9-1-1.5-.4-3.3-.9-3.9-1.1-.7-.2-4.4-1-7.7-1.2-1.2-1-2.6-1.4-4.5-1.4-4 .2-7.4-1.6-11.5-1.3-.3 0-.3.4 0 .4 1.8.2 3.6.2 5.3.7 1 .3 2.3 1 3.4 1.2 1.1.2 2.2-.1 3.3 0 .5 0 1.1.1 1.6.2-1 .1-1.9.3-2.5.7-2.6 1.8-4.7.3-8.8.3s-15.2-.6-15.2-.6-11.4.3-15.8.9c-1.1.1-2.8.2-4.8.3.3-.3.5-.6.8-.8 2.5-2.3 4.5-2.4 7.8-2.2 4.9.3 9-1.6 13.9-2.1.1 0 .1-.2 0-.2-2.7.2-5.2.6-7.8 1.3-3.2.9-6.2-.1-9.5-.1-4.3 0-3.9 1.6-6.2 4.1-3.4.1-7.3 0-10.5-.2v1.8l4.6.1c6 .8 11.1 1.4 20.9.2zm.3 33.8c1.2.2 2.9-.2 4.1-1.1-1.5-.2-4.2.3-5.5-.2-1.7-.6-5.2-.6-8.3-.2-2 .3-9.6-.1-16-.7v2.1l8.8-.3 16.9.4zm22.8 30.8c-.6-.1-1.5-.1-2.6-.2-.3-1.5-.9-3.2-2.2-3.6-.5-.2-.9.1-1.4.1-1 .1-1.9 0-2.8-.2-1.3-.3-2.5-.7-3.9-.6-.2 0-.2.3 0 .3 1.9.4 3.6 1.4 5.5 1.6.5.1 1.1-.1 1.5-.1 1.5.3 2.1 1.2 2.4 2.4-5.8-.4-15.4-.8-19.5-.8-5.1 0-20.8.3-25.4.3v3.2l4.6.1c5.9.6 11 1.2 20.8 0 .7-.1 8.8.2 9.5.2l17-.6 16.8.4c1.1.2 2.7-.2 3.9-.9-2-.1-4.8-.2-6.1-.2-2.2 0-14.3-1-18.1-1.4zM25.7 32.1c1.3.2 3.2-.3 4.5-1.3-1.4-.3-3.4-.6-4.8-.9-3.4-5.6-12.7-4-18.1-5.5-.1 0-.1.1-.1.1 2.5 1 5.1.9 7.7 1.5 2.8.6 7 1.3 9.1 3.6-2.3-.1-6.6.6-9.5-.3-2.1-.6-9.5-.6-14.5-.8V32l8.8-.3 16.9.4zm-.3 33.3c.7-.1 8.8.2 9.4.2l17-.6 16.8.4c.9.2 2 0 3.1-.5-2-.1-4.3-.6-5.9-.8-2.5-.3-7.3-1.3-10.8-1.9-.4-.1-1-.1-1.8-.1 1.1-.3 2.2-.2 3.4-.3.4 0 .5-.5.1-.7-1-.4-2.1-.3-3.1-.1-.5.1-1 .3-1.5.5-.3.2-.7.4-1 .6-6.5.3-17.9 1.7-19.9 2-2.5.3-18.5-.3-21.7-1.3-1.3-.4-3.7-.5-6.3-.7 4.4-1.9 9.8-.1 14.5-.3 4.2-.2 8.4-.8 12.4-2.2.2 0 .1-.3-.1-.2-6.9 1.7-13 1.8-20.1 1-3.2-.4-5.4-.3-8 1.6-.6.1-1.3 0-1.9 0v3.4l4.6.1c5.9.5 11 1.1 20.8-.1zM155.5 29c3.6-.9 6.7-1.5 10.4-.8 2.3.5 4.3 1 6.6.6.1 0 .1-.2 0-.2-3.4.4-6.6-1.2-9.9-1.4-2.5-.1-5 .2-7.3 1.4-.1.2 0 .5.2.4zM55.2 12c.9-.5 1.8-.7 2.8-.8.1 0 0-.1 0-.1-1 0-2 .3-2.9.8-.1 0 0 .1.1.1zm5.5-.8c1-.1 1.9-.1 2.9-.3.1 0 .1-.1 0-.1-1 0-1.9.2-2.9.3-.2-.1-.2.1 0 .1zm31.1 39.5c.5 0 .5-.8 0-.8-.9 0-2 .2-2.6.9-.2.2 0 .5.3.4.8 0 1.5-.4 2.3-.5zm-6.8 5c-.2 0-.3 0-.4.1-.2.1-.2.4 0 .5.1.1.2.1.4.1.4 0 .4-.6 0-.7zm36 1.7c.1 0 .1-.1.2-.1.1-.1.1-.2 0-.3-.1 0-.1-.1-.2-.1-.6-.5-.6.9 0 .5zm8.9 1.4c.1-.2-.1-.3-.3-.2-.2.1-.3.3-.6.1-.3-.2-.6.3-.3.5.5.1 1.1.1 1.2-.4zm26-6.9c.2-.1.2-.4 0-.5-.2-.1-.3-.1-.5-.1-.6-.1-.6.8 0 .7.2 0 .3 0 .5-.1zm28.2 7.5c.2-.1.2-.3 0-.4-.4-.1-.7-.1-1.1-.1-.4 0-.4.6 0 .6s.8 0 1.1-.1zm6.8.2c.1 0 .1-.2 0-.2-.7-.2-1.4-.1-2.1-.1-.3 0-.3.5 0 .5.7-.1 1.4 0 2.1-.2zM22.2 24c2.6.9 4.7-1.3 6.9-2.2.2-.1.1-.3-.1-.3-2.3.6-4.2 2.9-6.7 2.1-.3-.1-.4.3-.1.4zm5.8-8.4c.3 0 .3-.5 0-.5-.4-.1-.4.5 0 .5zm14.1 43.8c.2 0 .2-.4 0-.4-.3 0-.3.4 0 .4zm11.8-.5c.4-.2.9-.4 1.3-.6.1-.1 0-.2-.1-.2-.5.1-.9.3-1.3.5-.1.1-.1.4.1.3zm-14.8-9.5c-7-.4-14.1-.5-21.1-1.3-5.1-.5-7.7-1.6-12.3 1.1-.1.1 0 .2.1.2 4.7-2.6 10.4-.5 15.6-.4 5.9.1 11.8.4 17.7.6.2 0 .2-.2 0-.2zm15.3-5.2c-.6-.1-1.2-.1-1.9-.2-.4 0-.4.6 0 .6.6 0 1.3 0 1.9-.2.1 0 .1-.2 0-.2zm8.1 2.9c.2 0 .2-.3 0-.3s-.2.3 0 .3zM45 51.5c.2 0 .2-.2 0-.2s-.2.2 0 .2zm-17.6 1.4c.2 0 .2-.4 0-.4s-.2.4 0 .4zm28 29.3c.2 0 .2-.2 0-.2-1.1-.4-2.2-.6-3.4-.9-.3-.1-.4.4-.1.4 1.2.3 2.3.6 3.5.7zm18.7-.1c.2-.1.1-.4-.1-.4-.9-.1-1.8.2-2.6.4-.2.1-.2.5.1.4.8 0 1.7 0 2.6-.4zm11.4 1.6c.2 0 .2-.3 0-.3s-.3 0-.5-.1c-.3 0-.3.5 0 .5.2 0 .3-.1.5-.1zm20.9 6.9c-.3 0-.3.5 0 .5s.3-.5 0-.5zm-13.1 2.3c.3 0 .3-.5 0-.5-.5 0-1.1 0-1.6.1-.2 0-.2.3 0 .3.6.2 1.1.1 1.6.1zm44.6-10.4c-.3-.1-.4.4-.1.4.5.1.9.2 1.4.2.2 0 .2-.3.1-.4-.6 0-1-.1-1.4-.2zm-8.7 11.3c-.3 0-.3.5 0 .5.7 0 1.4.1 2.1-.1.2 0 .2-.3 0-.3-.7-.2-1.4-.2-2.1-.1zm22.9-3.2c-2.3-.1-4.5.1-6.6 1.1-.3.2-.1.8.2.6 4.9-2.1 10.3.2 15.3-.4.4 0 .5-.6.1-.7-2.8-.6-6-.5-9-.6zm20.5 2.7c1.2.1 2.4.4 3.6.6.2 0 .3-.2.1-.3-1.1-.6-2.5-.8-3.8-.8-.3-.1-.3.5.1.5zm20.9-6.7c.2 0 .2-.3 0-.3-1.2-.1-2.4-.3-3.6-.3-.2 0-.2.3 0 .3 1.1.2 2.4.2 3.6.3zm-9.4-.5H183c-.1 0-.1.1 0 .1h1.1c.1.1.1-.1 0-.1zm-10 0c-5.1.5-10.1 0-15.1-.5-.3 0-.3.4-.1.5 5 1.1 10.2 1 15.2.5.3-.1.3-.5 0-.5zm-157.2 3c-.2.1 0 .4.2.3.8-.4 1.6-.5 2.5-.5.1 0 .2-.2 0-.2-.9-.4-1.9-.1-2.7.4zm6.6-10.5c-.1 0-.1.2 0 .2 1.4-.1 2.8-.2 4.2-.1.2 0 .2-.3 0-.3-1.4-.1-2.9-.1-4.2.2zm-18 36.5c-.2 0-.2.3 0 .3 1.1 0 2.3 0 3.4-.1.1 0 .1-.2 0-.2-1.1-.1-2.3 0-3.4 0zm5.4 1.2c.3.9.8 1.9 1.6 2.4.1.1.1-.1.1-.1-.6-.7-1.2-1.4-1.5-2.4 0-.2-.3-.1-.2.1zm3.8 2c-.2.1 0 .4.2.3 3.7-1.7 6.9-2.4 10.9-2.6.2 0 .2-.3 0-.3-3.6-.5-7.9.6-11.1 2.6zm99.6.4c.1 0 .1-.1 0-.2h-.5c-.1 0-.1.2 0 .2h.5zm11.6 6.8c1-.3 2-.2 3.1-.2.2 0 .3-.3.1-.3-1-.5-2.3-.3-3.3.1-.4 0-.3.5.1.4zm8.8.9c.3 0 .3-.4 0-.4s-.3.4 0 .4zm3.6.2c.2 0 .2-.3 0-.3s-.2.3 0 .3zm2.6-13.8c3.1.3 5.9 1.8 9 .9.3-.1.3-.6-.1-.6-2.9.3-5.5-.6-8.3-.8-3-.2-5.9 1.2-8.9.5-.4-.1-.6.4-.3.6 3 1.9 5.5-.9 8.6-.6zm-15.7.5c-2.7.6-5.3.8-8 1-.2 0-.2.3 0 .3 2.7 0 5.5-.4 8.1-1 .2 0 .1-.4-.1-.3zm54.4 5.2c.2 0 .2-.3 0-.3s-.2.3 0 .3zm.6-3.8c-.3 0-.5.1-.8.1-.2 0-.2.3 0 .3.3 0 .5.1.8.1.3 0 .3-.5 0-.5zm-6.8 9.7c.4 0 .4-.6 0-.6s-.4.6 0 .6zm-1.9-5.2c-.2 0-.2.3 0 .3s.2-.3 0-.3zm11.6 4.2c.2 0 .2-.3 0-.3-.2-.1-.4-.1-.6-.1-.3 0-.3.5 0 .5.2 0 .4 0 .6-.1zm4.6 0c-.2 0-.2.3 0 .3s.2-.3 0-.3zm8.2 1.7c-.4 0-.4.6 0 .6.3 0 .3-.6 0-.6zM158.6 150c.6.1 1.3.2 1.9.2.2 0 .2-.3 0-.3-.6-.2-1.2-.3-1.9-.3-.2-.1-.2.4 0 .4zm7.7 1.1c.1-.1 0-.2-.1-.2-.5.2-1 .3-1.5.2-.2 0-.2.3 0 .3.6.1 1.2 0 1.6-.3zm3.9-.1c-.3 0-.3.5 0 .5s.3-.5 0-.5zm-103.7 2.1c.2-.1.3-.2.5-.4.1-.1 0-.3-.2-.3-.2.1-.4.1-.6.2-.2.1 0 .7.3.5zm8.5-1.9c-.4 0-.4.6 0 .6s.4-.6 0-.6zm26.7 37.5c-.3 0-.3.6 0 .5 1-.1 2.2-.1 3.2-.4.2-.1.2-.3-.1-.4-1 0-2.1.2-3.1.3zm18.5 5.3c-.2.1-.2.4 0 .4.2.1.4.1.6.1.3 0 .3-.6 0-.5-.2-.1-.4-.1-.6 0zm6.1-.2c.2 0 .2-.3 0-.3-.5-.1-1-.1-1.6-.1-.3 0-.3.4 0 .4.5.1 1.1.1 1.6 0zm8.6-.2c-.3 0-.3.5 0 .5s.3-.5 0-.5zm46.7 1.6c.8-.2 1.8-.2 2.4-.7.1-.1 0-.2-.1-.2-.8-.2-1.7.2-2.5.4-.4 0-.2.6.2.5zm-161.5-5.3c-.1 0-.1.2 0 .2 3-.8 6.1-.4 8.8 1.1.2.1.4-.2.2-.3-2.8-1.7-5.9-2.1-9-1zm-15-5.2c-.4-.1-.6.6-.2.6 2.9.7 6.1.8 8.9-.5.3-.1.1-.6-.2-.5-3 .5-5.6.9-8.5.4zm25.5-7.2c-.5 0-1.1.1-1.6.2-.2.1-.1.4.1.4l1.5-.3c.2 0 .2-.3 0-.3zm13 1.4c-.2.1-.1.4.1.4 1.8-.4 3.5-.9 5.2-1.7.1-.1 0-.2-.1-.2-1.7.4-3.4 1-5.2 1.5zm11.1-1.9c-.9-.1-1.8-.1-2.7-.1-.3 0-.3.4 0 .4.9 0 1.8.1 2.7-.1.1.1.1-.1 0-.2zm4.9-.3h.3c.1 0 .1-.1 0-.1h-.3c-.1 0-.1.1 0 .1zm4.2 5.7c.3 0 .3-.4 0-.4-.3-.1-.3.4 0 .4zm-10 6.6c.1 0 .1-.1 0 0 0-.1 0 0 0 0zm-24.3-8.7c.3 0 .3-.5 0-.5s-.3.5 0 .5zm-13.3-24.6c.3 0 .3-.5 0-.5s-.3.5 0 .5zm1.8-.5c.3 0 .3-.5 0-.5s-.3.5 0 .5zm-7.6 3.4c.3 0 .3-.5 0-.5s-.3.5 0 .5zm10.4-9.7c.1 0 .1-.1.2-.1.1-.1.1-.2 0-.3-.1-.1-.1-.1-.2-.1-.6-.3-.6.8 0 .5z" fill="#a4c9d2" stroke-width="none" opacity="1"></path><path id="SvgjsPath12449" d="M65.5 71.8c-3.3-1.8-5.6-.7-9.1-.7-4.1 0-8-.9-12.2-.2-.2 0-.2.4 0 .4 2-.2 3.9-.4 5.9-.2 1.9.2 3.7 1.1 5.5 1.3 3.4.3 6.2-1.4 9.7-.4.2 0 .3-.2.2-.2zm21.3-1.4c-5.7.6-11.2 1.2-16.9 1.2-.2 0-.2.2 0 .2 5.6.1 11.4-.2 16.9-1.3.1 0 .1-.1 0-.1zm12.6-1.2c-1.6-.6-3.3-.4-4.8.2-.1 0 0 .1 0 .1 1.6-.6 3.1-.5 4.8-.1 0 0 .1-.1 0-.2zm14.3 1.3c-1.4-.9-3.1-.8-4.7-.7-.2 0-.2.4 0 .4 1.2 0 2.5 0 3.6.4 1.3.5 1.8 1.4 2.2 2.6.1.2.3.2.4 0 .2-1.1-.6-2.1-1.5-2.7zm3.2 7.7c0-.2-.3-.2-.3 0v1.2c0 .1.2.1.3 0 .1-.4 0-.8 0-1.2zm-8.3 24.7c-5.5-.5-11.1-.2-16.6-.1-3.7.1-8.1-.6-11.5.9-.2.1-.1.5.2.4 4.1-1.7 9.9-.5 14.3-.5 4.6 0 9.2.2 13.7-.2.2.1.2-.5-.1-.5zm50.3 1.4c-6.2-1.2-12.6-1.3-18.9-1.6-7.2-.3-14.4-.7-21.6.1-.2 0-.2.4 0 .3 6.9-.6 13.7-.7 20.6-.2 6.6.5 13.1 1.8 19.8 1.7.2.1.3-.2.1-.3zm1.3 2.8s0 .1 0 0c.1.1.1 0 0 0zm.2 0c0-.1-.1-.1-.1 0 .1 4-.3 8.1-.2 12.1 0 .1.1.1.2 0 .5-3.9.3-8.1.1-12.1zm35.6-4c-2.5 0-5.1.3-7.6.1-1.9-.2-3.8-1-5.7-1.1-3.9-.2-7.3.5-11.2-.2-.4-.1-.5.5-.2.6 4.4 1.3 9.1 1 13.6 1.3 3.6.2 7.4-.1 11-.3.3-.1.3-.4.1-.4zm-36-33.2c-6.2.2-12.5.6-18.7.1-4.8-.4-10.2-2.5-14.9-.8-.2.1-.1.4.1.3 4.9-1.5 11.5 1.3 16.7 1.6 5.6.3 11.3-.2 16.8-.9.1 0 .2-.3 0-.3zm31.7-32.4c-3.1-2-7.1-.2-10.6-.6-3.8-.4-7.1-1-11 0-.3.1-.2.5.1.5 3.8-.6 7.1 0 10.8.5 3.4.4 7.4-1.2 10.6 0 .2 0 .3-.3.1-.4zm-76.6-.3c-11 1.4-21.9-.6-32.9 0-.3 0-.3.5 0 .5 11 .2 22.2 2.4 33-.2.1 0 .1-.3-.1-.3zm40.1-.3c-7.5.5-14.8-1.3-22.4-.2-.2 0-.1.3 0 .3 5.1-.6 9.4-.2 14.4.5 2.4.3 11.8-.5 11.9 2.8 0 .3.4.4.5.1.8-3.1-1.8-3.6-4.4-3.5zM115 5.1c-3.9-2.9-9.1 1-13.3 0-.2 0-.3.2-.1.3 2.8 1.2 5 .4 7.9-.1 3.1-.5 5.8.2 6.7 3.6.6 2.2.5 4.8.7 7 0 .3.5.3.5 0-.2-3.3.6-8.6-2.4-10.8zm-21.7-.9c-3.8 0-7.7-.1-11.5-.2-.2 0-.2.2 0 .2 3.9.3 7.7.2 11.6.1.1.1.1-.1-.1-.1zm-35.6 23c-2.4-.5-4.8-.6-7.2-.5-1.6.1-10.7 2.2-9.6-1.8.1-.2-.3-.4-.4-.2-1 1.9.5 3.5 2.4 3.8 1.5.2 3-.4 4.5-.6 3.4-.6 6.8-.6 10.3-.5.1.2.1-.1 0-.2zm2.8.4c-.4 0-.4.6 0 .6s.4-.6 0-.6zm7.3 1.4c-2-.5-4.1-.8-6.1-1-.1 0-.2.2 0 .2 2 .5 4 1 6.1 1.1.1.1.2-.2 0-.3zm63.5-.8c-1.1-.2-2.4-.1-3.2-.9-1-1-.6-2.4-.3-3.5.3-1.3.6-2.6-.1-3.9-.1-.2-.5 0-.4.2 1 2.2-1.2 4.5-.4 6.7.6 1.7 2.7 2.2 4.3 2 .3 0 .5-.5.1-.6zm13-8.5c-2.5-.4-5.1-1.4-7.6-1.6-2.8-.2-7.1 2.3-9.5.5-.2-.1-.4.2-.2.3 1.6 1.4 3.2.8 5 .3 4.5-1.3 7.9.5 12.3.7.1.1.1-.1 0-.2zM126.6 3.6c0-.2-.3-.4-.4-.1-.5 2.6-.5 5.1.3 7.6.1.2.3.1.3-.1-.4-2.5-.6-4.9-.2-7.4zm-96.9.9c-2.5-2-5.2-1.5-8.2-1.3-4.8.5-9.4.3-14.1-.2-.1 0-.2.2 0 .3 3.4.7 6.7 1.1 10.2 1.1 4.1 0 7.9-.9 11.9.6.2 0 .4-.3.2-.5zm.5 6.1c-.1-1.5.1-3.1-1-4.2-.1-.2-.4.1-.2.2 1.2 1.6.8 4.7.9 6.6.1 1.8.1 3.6.3 5.3 0 .1.2.1.2 0 .2-2.6-.1-5.3-.2-7.9zm.3 14.7c0-.2-.4-.2-.4 0 .1 1 0 1.9-.1 2.9 0 .1.2.1.2 0 .4-.9.4-1.9.3-2.9zm42.9 16.2c-.1-2.2-1-4.1-3.4-3.6-.2 0-.1.3 0 .3 3.9 1.1 2 9.4 2.2 12.2.2 2.7.7 5.1 1.7 7.5.1.1.2 0 .2-.1-2.1-5.5-.5-10.7-.7-16.3zm-4.7-3.8c-2.1.1-4.2 0-6.3-.1-.2 0-.2.3 0 .3 2.1.4 4.2.3 6.3 0 .2 0 .2-.2 0-.2zm-35.4-1.3c-3.4-.8-6.8-.3-10.3 0-4.2.3-8.4.6-12.5 1.2-.2 0-.2.3 0 .3 7.3-.2 15.5-2.6 22.7-1.1.3 0 .4-.4.1-.4zM17.7 46.7c-2.9 1.2-5.8-1.1-8.7-.3-.1 0-.1.2.1.2 2.9-.8 6 1.9 8.8.3.1-.1 0-.3-.2-.2zm6.9 22.8c-6.8.3-12.3 1.3-18.9-1.2-.2-.1-.4.3-.2.4 2.8 1.2 5.7 2 8.8 2.3 2.7.2 13.1-1.7 14.4 1.7.1.2.5.2.5-.1 0-2.7-2.2-3.2-4.6-3.1zm5.9 9.9c0-.3-.4-.3-.4 0 0 1-.1 2.1 0 3.1 0 .2.3.2.3 0 .2-1 .1-2.1.1-3.1zM53.4 104c-6.5-1.7-13.3-1.4-19.9-1.4-.2 0-.2.2 0 .2 6.7 0 13.2.4 19.8 1.5.2.1.3-.2.1-.3zm.8 24.2c-7.7.5-15.5-1.1-23.2-1.3-.2 0-.2.3 0 .3 7.3 1 16 2.8 23.3 1.3.1-.1.1-.3-.1-.3zm18.1-19.3c.2-2.2 1.1-4.8-1.7-5.3-.3-.1-.5.3-.2.5 2.3 1.5.9 8.9 1.2 11.5.3 3.4.9 6.7 1.6 10.1 0 .1.2.1.2 0-.8-5.6-1.6-11.2-1.1-16.8zm33.3 8.2c-3.7-3.4-7.5-3.4-12-1.8-.3.1-.2.6.1.4 2.2-.7 4.4-1.5 6.7-1 1.8.4 3.3 1.7 5 2.5.2.2.3 0 .2-.1zm15.3 4.2c-.5-1-1.6-1.2-2.6-1-.7.2-1.4.6-2 .9-1.4.7-2.6 1.1-4.2 1.2-.3 0-.3.5 0 .5 1.2 0 2.3-.2 3.4-.7 1.7-.7 3.3-2.2 5-.6.3.2.5 0 .4-.3zm37.4 15.8c-5.6-.4-10.5 2.8-16 1.9-5.4-.9-10.6-1.9-16.1-2.4-.3 0-.3.4-.1.5 6 .9 12.1 2.9 18.1 3.4 1.3.1 2.4-.1 3.6-.4 3.6-1.1 6.5-2.1 10.4-2.3.5-.2.5-.7.1-.7zm30.4-1.4c-6.1 0-13.7-.4-19.6 1.5-.2.1-.1.4.1.4 6.1-1.9 13.2-1 19.5-1.6.2 0 .2-.3 0-.3zm-61.1 24.5c-.8 0-1.2-.3-1.2-.9 0-.3-.1-.5-.1-.8-.1-.4-.1-.9-.1-1.3-.1-.9-.1-1.8-.1-2.7 0-.2-.3-.2-.3 0-.1 1.2-.1 2.4 0 3.6.1.7 0 1.8.5 2.4.4.6 1.5.7 1.6-.2-.1-.1-.2-.2-.3-.1zm36.7-.8c-2.9.3-5.8 1-8.6 1.5-3.6.7-6.6.3-10.2-.2-.2 0-.4.3-.1.4 2.5.4 5.1 1.1 7.6.9 3.7-.3 7.7-1.2 11.3-2.2.3-.1.3-.4 0-.4zm-94.1-22.8c-5.6-.1-10.8 1.8-16.3.2-4.9-1.4-9.8-1-14.8-.6-.1 0-.1.2 0 .2 3.2-.1 6.5-.4 9.7-.2 3.1.2 5.3 1.9 8.2 2.4 3.9.7 9.5-.6 13.3-1.6.2 0 .1-.4-.1-.4zm45.6 0c-6.7-.7-13.4-.6-20.1-1-6.1-.3-11.6.9-17.6 1-.2 0-.2.3 0 .3 5.9-.1 11.6-1.2 17.6-.8 6.7.4 13.4 1.2 20.1 1.3.5 0 .5-.7 0-.8zm1.7 10c-.1-.2-.3-.3-.4-.5-.4-.8-.3-1.4-.1-2.3.4-1.8.5-3.2-.5-4.9-.2-.3-.6 0-.5.3.6 1.1.8 2.4.4 3.6-.2.7-.8 1.4-.9 2.1-.1 1.2 1.4 1.7 1.3 3 0 .3.3.3.5.1.4-.5.4-.8.2-1.4zm.2 4.5c0-.3-.4-.3-.4 0 0 1.1-.1 2.3.1 3.4 0 .2.3.2.3 0 .1-1.1 0-2.3 0-3.4zM61 153.5c-2.8-.3-2.3-.8-4.9-2.9-.2-.2-.5-.8-.8-1.1-3.4-2.8-13 2.4-15.5-1.7-.1-.2-.4 0-.3.2 2.5 4.9 10-.1 14.1 2 2.1 1.1 1 2.4 2.7 3.5 1.2.8 3.5.4 4.8.3.1 0 .1-.3-.1-.3zm10.1 1.6c-1.6-.1-3.2.1-4.8.2-.3 0-.3.4 0 .4 1.6-.1 3.3-.1 4.8-.4.2-.1.1-.2 0-.2zm21.3-8.7c-1.6-.2-3.2-.1-4.8-.1-.3 0-.3.4 0 .4 1.6 0 3.2.1 4.8-.1.2 0 .2-.2 0-.2zm-69.7-8.8c-3.3-1.1-6.2-.6-9.6-.4-4 .2-7.8-.3-11.6-1.6-.2-.1-.4.3-.2.4 7.1 3.1 13.8 1.5 21.3 2 .2 0 .3-.3.1-.4zm4.3-.1c-.2 0-.3.4-.1.4 1.4.2 2.3 1.4 2.5 2.8 0 .1.2.1.2 0 .4-1.6-1.1-3.1-2.6-3.2zm3.2 6.8c0-.2-.3-.2-.3 0-.1 1.5-.4 3.2-.1 4.6 0 .2.4.2.4 0 .4-1.4.1-3.1 0-4.6zM71.8 173c-.1-.4-.6-.3-.6.1-.3 4.4.1 8.9.2 13.3 0 1.7.7 4.8.1 6.4-1.2 3.1-4.3 2.6-6.8 2.8-.2 0-.2.3 0 .3 4-.1 7.5 1.2 7.8-3.1.3-6.4.4-13.6-.7-19.8zm-.8-3.6c-2.5-.7-5.3 0-7.8.2-2.8.3-5.5.6-8.3 1.1-.2.1-.2.4.1.4 5.3-.1 10.7-1.4 16-1.3.2.1.2-.3 0-.4zm-24.1.2c-5.4-.9-11-1.3-16.4-.8-6.1.6-11.8 2.4-18 2.3-.2 0-.2.2 0 .3 4.8.5 9.5-.5 14.3-1.2 6.8-1 13.2-1.1 20-.2.2 0 .3-.4.1-.4zm6.6 10.5c-1.9.2-3.7.6-5.6.9-.2.1-.1.4.1.4 1.8-.3 3.7-.6 5.5-1.1.2 0 .1-.2 0-.2zm39.2 9.6c-1.6-2.5-5-3.6-7.9-2.8-.3.1-.2.5.1.5 2.9-.4 5.3.5 7.4 2.5.3.1.5 0 .4-.2zm11.5 1.7c-1.4-.1-3 .3-4.4.5-.3 0-.2.6.1.5 1.4-.2 3-.2 4.4-.7.1 0 .1-.3-.1-.3zm7.2-.3c-.2.1-.5.1-.7.2-.2.1-.1.3.1.3.2-.1.5-.2.7-.3.1-.1 0-.3-.1-.2zm17.1-4c-1.3-.9-3-1-4.5-.7-.3.1-.2.6.1.5 1.5-.3 2.9-.1 4.3.4.1.1.2-.1.1-.2zm7.3 1.6c-.7 0-1.4 0-2.2-.1-.2 0-.2.3 0 .3.7 0 1.4 0 2.2-.1.2 0 .2-.1 0-.1zm8 .4c-.6.1-1 .2-1.6.1-.3-.1-.5.4-.1.5.6.1 1.3.1 1.9-.2.1-.2 0-.4-.2-.4zm5.1-8.1c-.3 0-.3.5 0 .5s.3-.5 0-.5zm-64.4-10.8c-1.1-.8-2.4-.9-3.8-.7-.3 0-.2.4.1.4 1.2-.2 2.4.1 3.6.5.1.1.2-.1.1-.2zm48-.1c-2.8-.9-5.2-.4-8.1.1-4.4.8-8.4.6-12.8.7-3.3.1-6.4 1.4-9.8 1.3-3.3-.1-6.2-.9-9.5-.3-.2 0-.1.3 0 .3 3.2-.2 6.2.6 9.4.8 3.2.2 5.8-.9 8.9-1.1 3.6-.3 7.1.4 10.7-.1 3.7-.6 7-1.6 10.9-1 .6.2.8-.5.3-.7zm25.4-.2c-3.6-.9-7-.3-10.6 0-3.2.3-6.3-.8-9.3.4-.2.1-.1.5.1.4 3.2-.8 6.5.2 9.8.1 3.3-.2 6.6-.1 9.9 0 .4-.1.5-.7.1-.9zm1 1.6c-.2-.2-.5.1-.4.3.4.5.6 1 .8 1.5.2.5.2 1 .3 1.6.1.2.4.2.4 0 .3-1.3-.3-2.6-1.1-3.4zm10.8-.5c-.5 2.7-.8 5.4-.2 8.1 0 .2.4.2.4-.1.1-2.7 0-5.3.4-7.9 0-.2-.5-.4-.6-.1zm.5 11.7c0-.3-.4-.3-.4 0-.1 1 .3 1.9.8 2.7.7 1.2 1.2 2 1.2 3.4 0 .2.2.2.3.1 1.3-2-1.9-4.2-1.9-6.2zm20-12.2c-3.4-.3-6.8 0-10.3-.6-.3-.1-.4.4-.1.5 3.4.6 7.1 1.4 10.5.8.4 0 .2-.6-.1-.7z" fill="#ecf0f1" stroke-width="none" opacity="1"></path></g><g id="svga-group-humanwrap-move" transform="matrix(1,0,0,1,0,0)"><g id="svga-group-humanwrap"><g id="svga-group-hair-back-move" transform="matrix(1,-2.856368900253737e-18,2.856368900253737e-18,1,0,0)"><g id="svga-group-hair-back"></g></g><g id="svga-group-humanbody-back"><path id="SvgjsPath12399" d="M180.8 184.9c-2.3-3.4-38.9-17.8-38.9-17.8l-13.4-5.2-5.6-68.8H76.8L71.3 162l-13.4 5.2S21.4 181.6 19 185c-2.3 3.4-3.3 14.9-3.3 14.9V219h168.5v-19.2c-.1.1-1-11.5-3.4-14.9z" fill="#f0c7b1" stroke-width="none" opacity="1"></path></g><g id="svga-group-chinshadow-single"><path id="SvgjsPath12395" d="M75.6 165.2c1.5 1.4 18.8 1.3 18.8 1.3s17.3.1 18.8-1.3c2.75-2.52 8.61-13.24 13.71-23.28l-3.97-48.82H76.82l-5.31 66.77c1.64 2.55 3.07 4.47 4.09 5.33z" fill="#d19271" stroke-width="none" opacity="1"></path></g><g id="svga-group-humanbody-front"><path id="SvgjsPath12400" d="M184.5 219c-.1-6.4-.1-12.8-.1-19.2l-.3-.1s.1-.1.2 0c.1 0 .1.1.1.1v-.4l-.1-.5-.1-.9-.2-1.9c-.2-1.3-.4-2.5-.6-3.8-.2-1.3-.5-2.5-.9-3.8-.4-1.2-.8-2.5-1.5-3.6-.8-.9-1.9-1.5-2.9-2.1-1-.6-2.1-1.1-3.2-1.7-2.1-1.1-4.3-2.1-6.5-3.1-4.4-2-8.7-3.9-13.1-5.7-4.4-1.9-8.8-3.7-13.2-5.5l-13-5.2-1.2-16.9c-.4-5.7-.9-11.5-1.3-17.2l-1.3-17.2-1.5-17.3-.1-.8h-.8c-7.7 0-15.4.1-23.1.1l-23.1.2h-.5v.5L75 110.2l-1.3 17.2c-.8 11.4-1.8 22.8-2.8 34.2-5.6 2.1-11.2 4.2-16.7 6.4-5.6 2.2-11.2 4.5-16.8 6.9-2.8 1.2-5.6 2.4-8.3 3.6-2.8 1.3-5.5 2.5-8.2 4.1-.7.4-1.3.8-2 1.4-.2.1-.4.4-.5.6l-.3.6c-.2.4-.4.7-.5 1.1-.6 1.5-1 3-1.3 4.5-.6 3-1.1 6-1.4 9.1l-.1 19.1v.9h.9l42.1.1H100c14 0 28.1-.1 42.1-.2l42.1-.5h.3v-.3zm-84.5-1-42.1-.1-41.2.1-.1-18.1c.3-3 .6-5.9 1.2-8.9.3-1.4.6-2.9 1.1-4.2.1-.3.3-.7.4-.9l.2-.4.3-.3c.5-.4 1.1-.8 1.8-1.2 2.5-1.5 5.3-2.8 8-4.1 2.7-1.3 5.5-2.5 8.2-3.7 5.5-2.4 11.1-4.8 16.7-7.1s11.2-4.5 16.9-6.7l.2-.1v-.2c.9-11.5 1.7-23 2.7-34.4l1.4-17.2 1.5-16.7 22.6.2c7.4.1 14.8.1 22.3.1l1.3 16.4 1.5 17.2c.5 5.7 1 11.5 1.5 17.2l1.6 17.2v.3l.3.1 13.4 5c4.4 1.7 8.9 3.4 13.3 5.2 4.4 1.8 8.8 3.7 13.2 5.6 2.2 1 4.3 2 6.5 3 1.1.5 2.1 1.1 3.2 1.6 1 .6 2.1 1.2 2.9 2 .7 1.1 1.1 2.3 1.4 3.5.3 1.2.6 2.5.8 3.7.2 1.3.4 2.5.6 3.8l.2 1.9.1.9.1.5v.4c0 6.3 0 12.6-.1 18.9l-41.8-.5c-14 .1-28.1 0-42.1 0z" fill="#c27b55" stroke-width="none" opacity="1"></path><path id="SvgjsPath12401" d="M125.1 142.4s-1.8 23-9.1 32.9c0 0 7.9-25 9.1-32.9zm-34.5 16s5 7.9 11.5 10.1c0 0-9.5 2.2-11.5-10.1zM73.4 140c6.7 25.6 6.7 25.6 8.5 30.7 0 0 .4-12.6-8.5-30.7z" fill="#d19271" stroke-width="none" opacity="1"></path></g><g id="svga-group-clothes-single"><path id="SvgjsPath12267" d="m71.9 145.1-6.2 2.5-.7 14.1v20.2L79 220h42l10.7-34.3 3.4-25.5-1.7-14.2-5.4-.8-.3 9.2s-26.2 22.2-26.6 22.7-29.2-22.8-29.2-22.8v-9.2z" fill="#eaeaea" stroke-width="none" opacity="1"></path><path id="SvgjsPath12268" d="m127.8 155.4.8-.3 4.9-9-5.5-.9-.2 10.2zm-56.3-1.6h-.4l-5.2-6.1 6.3-2.6-.7 8.7z" fill="#c9c9c9" stroke-width="none" opacity="1"></path><path id="SvgjsPath12269" d="m44.6 168 1.1 1.7s-24.9 7.2-29 9c0 0-4.4-3.1-6 3.4-1.6 6.5-3.8 30.8-3.8 37.9h72s-8.7-29-14.1-59.9L44.6 168zm144.6 14.1c-1.6-6.5-6-3.4-6-3.4-4.1-1.9-29-9-29-9l1.1-1.7-20.3-7.8c-5.3 30.8-14 59.8-14 59.8h72c.1-7.2-2.2-31.4-3.8-37.9z" fill="#386e77" stroke-width="none" opacity="1"></path><path id="SvgjsPath12270" d="M89 180.6s4.9 12.4 6.4 15.4c0 0-2.8 17.1-2.9 23.8h18s-2.5-20-3.1-24.1c0 0 4.4-11 5.7-13.9 0 0-2.7-3.4-3.8-3.6-1.1-.2-8.7-.8-8.7-.8s-7.3.9-8.7 1.4c-1.4.4-2.9 1.8-2.9 1.8z" fill="#222222" stroke-width="none" opacity="1"></path><path id="SvgjsPath12271" d="M106.9 196c-1.1.5-3.8 1.9-5.2 2.1h-.5c-1.6-.1-4.2-1.3-5.3-1.8v-.2c.6.1 1.6.2 2.9.5 1.7.4 6.5-.4 8.1-.7m-5.5 17.2c1.2 1.5 3.4 2.7 3.1 1-.2-1.7-3.3-15.8-3.4-16-.1.7-.9 13.5.3 15zm-2.8-17.3s-.1-8.9-.6-9.8c-.5-.9-1.7-.1-2.1 1.8-.5 2 2.3 7.6 2.7 8zm-1.8 15.8c.5 2.7 1.9-.4 2.1-3.6.2-3.2-1.1-10.6-1.1-10.6-.2.5-1.5 11.4-1 14.2zm7.4-27.7c-1-1.1-2.5 1.9-2.8 4-.4 2.1-.2 6.3-.2 7.8-.1 0 3.9-10.7 3-11.8zm3.2 6.8c.6-1.2-.6-2.2-1.5-1.7s-1.7 5.3-2.1 7.2c0 0 3-4.2 3.6-5.5zm-2.4 18.4c.5 1 1.9 2.2 2.1 1.5.2-.7-2.7-12.5-2.7-12.5s.1 10 .6 11z" fill="#000000" stroke-width="none" opacity="1"></path><path id="SvgjsPath12272" d="m192.7 208.3-.9-11.6c-.3-3.9-.7-7.8-1.3-11.6-.2-1-.3-1.9-.5-2.9s-.5-2-1.1-3c-.5-1-1.6-1.9-2.9-2.1-.6-.1-1.2 0-1.8.1-.4.1-.8.3-1.2.5-2.3-.9-4.6-1.6-6.8-2.4l-7.3-2.2c-4.6-1.4-9.1-2.7-13.7-3.9l.6-.9.5-.7-.8-.3c-3.5-1.3-7-2.5-10.4-3.8l-9.2-3.2c0-.1 0-.2.1-.4l-2.2-14.2-6-1.4s-.5 4.6-.5 9.7l-13.8 11c-2.2 1.9-4.5 3.8-6.7 5.8l-3.3 2.9-1.7 1.5-.8.8c-2.3-1.6-4.6-3.4-6.9-5.1l-7.1-5.4-14.6-11.4.1-9.8c-.5.5-6.2 2.5-6.8 3v.1l-.6 8.6-.3 4-10 3.5c-3.4 1.2-6.9 2.5-10.4 3.8l-.8.3.5.7.6.9c-4.6 1.2-9.2 2.5-13.7 3.9l-7.3 2.2c-2.3.8-4.5 1.4-6.9 2.4-.4-.2-.7-.4-1.1-.5-.6-.2-1.2-.2-1.8-.1-1.3.2-2.3 1.1-2.8 2-.6 1-.9 2-1.1 3-.2 1-.3 2-.5 2.9-.5 3.9-.9 7.8-1.3 11.6l-.9 11.6c-.3 3.9-.6 7.8-.7 11.7v.3h.3c6 0 12 .1 18 .2l18 .3 18.1.3h78l18-.1c6-.1 12-.1 18-.3 6-.1 12-.2 18-.2h.4v-.4c-.1-3.9-.4-7.8-.7-11.7zm-88.1-33 3.4-2.9 6.8-5.7 13.6-11.5.2-.2-.4-9.6c1.8.4 3.6.8 5 1.1l1.1 13.6-1.1 8.5-1.4 6.4c-1.1 5-2.4 10-3.6 14.9-.7 2.9-1.5 5.9-2.3 8.8-.3-.8-.6-1.6-1-2.4-.3-.7-.6-1.4-1-2.1-.3-.7-.8-1.4-1.2-2-1.8-2.6-3.6-5-5.5-7.4-1-1.2-2-2.4-3-3.5-1.1-1.1-2.1-2.3-3.5-3.3-.3-.2-.7-.5-1.1-.7-.2-.1-.5-.2-.8-.3-.3-.1-.4 0-.6-.1l-2.3-.3-2.5-.3 1.2-1zm-38.8-19.1.2-8.5 5.7-2.1-.6 8.2 1.4 1.6h.1c4.5 3.8 9.1 7.6 13.7 11.3 2.3 1.9 4.6 3.7 6.9 5.6 1.8 1.4 3.5 2.8 5.4 4.2l-2.1.3c-.8.1-1.5.2-2.3.4l-1.2.2c-.2.1-.3.1-.6.1-.3.1-.5.2-.7.3-1.6.9-2.7 2-3.8 3.1-1.1 1.1-2.1 2.3-3.2 3.5-2 2.4-3.9 4.9-5.7 7.4-.9 1.3-1.8 2.6-2.6 3.9-.7 1.1-1.4 2.2-2 3.3-.8-2.9-1.5-5.9-2.3-8.8-1.2-5-2.5-9.9-3.6-14.9l-1.7-7.5-1-4.7c-.2-2.4-.1-4.8 0-6.9zM7.3 219.6c0-3.8.3-7.5.6-11.3.3-3.9.7-7.7 1.2-11.6.5-3.9 1-7.7 1.7-11.5.4-1.9.7-3.9 1.6-5.3.5-.7 1-1.2 1.7-1.2.7-.1 1.5.2 2.1.6l.4.3.4-.2c.6 1.4 1.1 2.7 1.6 4.1.6 1.7 1.1 3.4 1.3 5.1.5 3.5.8 7 1.2 10.5l1.2 10.5.7 5.3.6 4.5c-5.3.1-10.8.2-16.3.2zM61 219l-18 .1c-6 .1-12 .1-18 .3h-1.1c-.1-3.3-.4-6.5-.6-9.8-.3-3.5-.6-7-1-10.6-.4-3.5-.8-7-1.5-10.5-.7-3.2-2-6.3-3.5-9.1 2.2-.9 4.6-1.6 7-2.4l7.2-2.3 14.5-4.5h.1c.3.3.5.6.8.9.8.8 1.6 1.6 2.5 2.3-1.2.6-2.5 1.2-3.7 1.9l-.7.3.3.7c1.6 3.7 3.3 7.4 5 11 1.7 3.7 3.5 7.3 5.2 10.9l5.4 10.8c1.7 3.3 3.4 6.5 5.2 9.7-1.7.3-3.4.3-5.1.3zm5.3 0c-1.3-3.5-2.8-6.9-4.2-10.3-1.6-3.7-3.2-7.4-4.9-11.1-1.7-3.7-3.4-7.3-5.1-11-1.6-3.4-3.3-6.8-5-10.2 2.3-1.4 4.6-2.7 6.9-4.1l7.5-4.7c-1.4.6-2.7 1.2-4 1.8l-4 1.9c-1.3.7-2.7 1.4-4 2-.6-1-1.3-1.9-2-2.8-.5-.7-1.1-1.3-1.6-2l-.3-.4c3-1.2 6.1-2.5 9.1-3.8l10-4.2c0 .5.4 2.5.7 3.7l.3 1.8.3 1.9c.4 2.5.8 5.1 1.3 7.6 1 5 1.9 10.1 3.1 15.1 2.1 9.6 4.5 19.1 7.2 28.5-3.8.2-7.5.3-11.3.3zm13.6.2c-1.4-4.7-2.7-9.5-4-14.3-.5-2-1.1-3.9-1.6-5.9 1.7-2.3 3.5-4.5 5.3-6.7 2-2.4 4-4.7 6.1-7 1-1.1 2.1-2.2 3.2-3.3l.1-.1c1.2 3.1 4.6 11.4 5.9 14.1-.3 1.7-2.7 16.8-2.9 23.3l-12.1-.1zm13.1.1c.2-6.6 2.7-21.7 2.9-23.2v-.1l-.1-.1c-1.2-2.5-4.9-11.7-6-14.5.8-.7 1.7-1.4 2.5-1.8.1-.1.3-.1.4-.1.1 0 .3-.1.5-.1l1.1-.2c.8-.1 1.5-.2 2.3-.3 1.5-.2 3-.3 4.5-.5l4.5.5 2.3.2c.2 0 .4 0 .5.1.1 0 .2 0 .3.1.3.1.5.3.8.5 1 .7 1.9 1.6 2.8 2.5-1.5 3.5-5.4 13.3-5.5 13.4v.2c.6 4 2.7 20.3 3.1 23.5l-16.9-.1zm18 .3c-.2-1.5-2.5-19.7-3.1-23.9.4-1.1 3.8-9.4 5.2-12.9 1 1 1.9 2 2.8 3 2 2.3 4 4.6 5.9 7 .5.6 1 1.2 1.4 1.8.4.6.8 1.3 1.1 2l1.3 2.5-1.5 5.7c-1.3 4.9-2.7 9.9-4.2 14.8-2.9.1-5.9.1-8.9 0zm11.4-.7c2.7-9.4 5.1-18.9 7.2-28.5 1.1-5 2.1-10.1 3.1-15.1.4-2 .7-4.1 1.1-6.1 1-2.8 1.8-5.7 2.2-8.7l9.3 3.9c3.1 1.3 6.1 2.5 9.1 3.8l-.3.4c-.6.6-1.1 1.3-1.6 2-.7.9-1.3 1.8-1.9 2.8-1.3-.7-2.7-1.4-4-2l-4-1.9c-1.3-.6-2.7-1.3-4-1.8l7.5 4.7c2.3 1.4 4.6 2.8 6.9 4.1-1.7 3.4-3.4 6.8-5 10.2-1.8 3.6-3.4 7.3-5.1 11-1.7 3.7-3.3 7.4-4.9 11.1-1.5 3.4-2.9 6.8-4.2 10.3-3.9-.1-7.6-.2-11.4-.2zm52.6.5-18-.3-18-.1h-5.2c1.8-3.2 3.5-6.5 5.2-9.7 1.9-3.6 3.7-7.2 5.4-10.8 1.8-3.6 3.5-7.3 5.2-10.9 1.7-3.7 3.4-7.3 5-11l.3-.7-.7-.3c-1.2-.6-2.5-1.3-3.7-1.9.9-.7 1.7-1.5 2.5-2.3.3-.3.5-.6.8-.9h.1l14.5 4.5 7.2 2.3c2.4.8 4.8 1.5 7 2.4-1.6 2.8-2.9 5.9-3.5 9.1-.7 3.5-1.1 7-1.5 10.5-.4 3.5-.8 7-1 10.6-.2 3.3-.5 6.5-.6 9.8-.2-.3-.6-.3-1-.3zm1.2 0 .6-4.5.7-5.3c.5-3.5.8-7 1.2-10.5l1.2-10.5c.2-1.7.7-3.4 1.3-5.1.5-1.4 1-2.8 1.6-4.1l.4.2.4-.3c.6-.4 1.5-.7 2.1-.6.7.1 1.3.5 1.7 1.2.9 1.4 1.2 3.4 1.6 5.3.7 3.8 1.2 7.6 1.7 11.5.5 3.8.9 7.7 1.2 11.6.3 3.8.6 7.5.6 11.3-5.3 0-10.8-.1-16.3-.2z" fill="#184f58" stroke-width="none" opacity="1"></path><path id="SvgjsPath12273" d="M111 174.5c3.5.2 9.7 9.1 9.7 9.1s8.9-15.3 9.7-19c.8-3.6 2-14.2 2-14.2s-3 9.7-3.8 11.1-17.6 13-17.6 13zm-33.5 15c2-3.5 8.4-11.7 9.9-12.5 1.5-.8 7.6-1.6 7.6-1.6l-15-10.9s2.1 8.2 2.1 10.1-4.6 14.9-4.6 14.9z" fill="#ffffff" stroke-width="none" opacity="1"></path><path id="SvgjsPath12274" d="M184.7 180.9c2.3.8 3.3 6.6 4.1 9.7.8 3.1 2.3 25.1 2.3 25.1s-3.1-25.1-4.6-28.7c-1.5-3.6-1.8-6.1-1.8-6.1zM155 172c1.5-.2 21.9 5.8 25.7 8.2 0 0-10.6-2.3-15.3-3.6-4.8-1.3-10.4-4.6-10.4-4.6zm-16.3-2.6c1 .5 13 7.8 13 7.8s-11.7 24.1-12.9 27.1-5.4 11.7-5.4 11.7 6.1-16.8 7.8-22.6c1.6-5.8 6.1-15.7 6.1-15.7l-8.6-8.3zm-74.2-2.8c.5 5.3 7.8 40.6 10.9 47.8 0 0-6.6-15.3-9.7-29.5-3.2-14.2-1.2-18.3-1.2-18.3z" fill="#4d7e86" stroke-width="none" opacity="1"></path></g><g id="svga-group-head" transform="matrix(1,-2.856368900253737e-18,2.856368900253737e-18,1,0,0)"><g id="svga-group-ears-left-move" transform="matrix(1,0,0,1,0,0)"><g id="svga-group-ears-left"><path id="SvgjsPath12299" d="M67.09 85.03s-3.12-7.36-5.69-9.71c-2.57-2.34-7.59-5.02-9.48-4.35-1.9.67 1.12 8.81 2.23 10.6 1.12 1.79 1.12 11.49 1.23 14.39.11 2.9 2.9 6.25 5.02 8.7 2.12 2.45 4.24-1.12 5.69-4.35 1.45-3.23 1-15.28 1-15.28z" fill="#f0c7b1" stroke-width="none" opacity="1"></path><path id="SvgjsPath12300" d="M65.92 91.31c-.33-2.85-5.11-11.21-6.86-12.8-1.76-1.59-5.69-4.44-5.77-3.52s2.26 5.69 2.34 8.54.17 10.96 1.09 12.72c.92 1.76 5.69 1.51 6.53-.17s2.67-4.77 2.67-4.77z" fill="#e1ac8f" stroke-width="none" opacity="1"></path><path id="SvgjsPath12301" d="M51.07 71.79c-.11.94.06 1.79.25 2.64.4 1.69.98 3.31 1.62 4.9.33.79.68 1.58 1.11 2.33.35.72.47 1.6.59 2.43.22 1.69.26 3.4.32 5.11.04 1.71.03 3.42.05 5.13.03.85-.04 1.71.14 2.62.17.89.52 1.72.93 2.5.82 1.56 1.87 2.94 2.96 4.28.27.33.55.67.83.99.13.16.29.33.47.5.16.18.38.32.6.45.46.25 1.07.32 1.58.14.49-.19.88-.49 1.21-.81.66-.65 1.13-1.41 1.57-2.16.43-.76.81-1.54 1.15-2.34.63-1.74.72-3.45.84-5.17.17-3.44.07-6.86-.15-10.29-.62-1.62-1.31-3.18-2.08-4.71-.79-1.52-1.59-3.06-2.7-4.42-.56-.69-1.24-1.27-1.92-1.8-.69-.53-1.41-1.01-2.15-1.47-1.49-.89-3.07-1.66-4.83-2.01-.44-.07-.91-.11-1.4.01-.22.02-.56.2-.71.44-.18.22-.23.47-.28.71zm.56.1c.04-.18.1-.36.19-.47.1-.11.16-.15.37-.18.35-.08.75-.02 1.14.05 1.6.33 3.13 1.13 4.58 1.96.73.42 1.44.88 2.11 1.38.68.51 1.32 1.03 1.85 1.67 1.07 1.27 1.97 2.74 2.81 4.22.83 1.48 1.63 3.01 2.37 4.53-.03 3.41-.11 6.84-.4 10.23-.16 1.68-.34 3.42-.92 4.9-.73 1.51-1.47 3.09-2.59 4.22-.28.27-.59.49-.9.61-.31.1-.61.06-.9-.09-.55-.33-1.09-1.11-1.65-1.73-1.09-1.3-2.14-2.64-2.94-4.1-.4-.73-.72-1.5-.9-2.28-.17-.76-.15-1.64-.19-2.49-.06-1.71-.14-3.42-.25-5.13-.11-1.71-.25-3.42-.48-5.12-.14-.85-.25-1.71-.66-2.52-.43-.72-.75-1.52-1.07-2.31-.62-1.59-1.13-3.22-1.44-4.89-.14-.84-.26-1.7-.13-2.46z" fill="#e1ac8f" stroke-width="none" opacity="1"></path><path id="SvgjsPath12302" d="M57.38 80.46c.58 1.22 1.11 2.47 1.51 3.75.4 1.29.75 2.59 1.06 3.9.29 1.31.56 2.63.72 3.97l-.08.02c-.42-1.28-.8-2.56-1.2-3.84-.39-1.28-.78-2.56-1.2-3.82-.41-1.27-.78-2.55-1.24-3.8-.38-1.05-.84-2.1-1.49-3 .37 1.58.79 3.15 1.13 4.74.19.9.36 1.8.49 2.71.07.46.13.92.17 1.38.05.46.04.98.04 1.39.05 1.78.28 3.6.53 5.39.14.9.28 1.79.47 2.67.09.44.2.88.32 1.3.01.02.01.04.02.06.04-.85.09-1.71.11-2.56.04-1.28.1-2.55.06-3.83l.08-.01c.17 1.27.2 2.56.25 3.84.03 1.28.04 2.56.05 3.84v.8l-.52-.59c-.4-.46-.51-.9-.68-1.34-.15-.45-.28-.89-.39-1.34-.23-.9-.42-1.8-.58-2.71-.31-1.82-.56-3.63-.58-5.51.09-1.79-.24-3.58-.47-5.39-.26-1.8-.5-3.62-.9-5.4l-.12-.54.35.42c.88 1.08 1.49 2.29 2.09 3.5z" fill="#c27b55" stroke-width="none" opacity="1"></path></g></g><g id="svga-group-ears-right-move" transform="matrix(1,0,0,1,0,0)"><g id="svga-group-ears-right"><path id="SvgjsPath12303" d="M132.91 85.03s3.12-7.36 5.69-9.71c2.57-2.34 7.59-5.02 9.48-4.35s-1.12 8.81-2.23 10.6c-1.12 1.79-1.12 11.49-1.23 14.39-.11 2.9-2.9 6.25-5.02 8.7-2.12 2.45-4.24-1.12-5.69-4.35-1.45-3.23-1-15.28-1-15.28z" fill="#f0c7b1" stroke-width="none" opacity="1"></path><path id="SvgjsPath12304" d="M134.08 91.31c.33-2.85 5.11-11.21 6.86-12.8 1.76-1.59 5.69-4.44 5.77-3.52.08.92-2.26 5.69-2.34 8.54s-.17 10.96-1.09 12.72c-.92 1.76-5.69 1.51-6.53-.17s-2.67-4.77-2.67-4.77z" fill="#e1ac8f" stroke-width="none" opacity="1"></path><path id="SvgjsPath12305" d="M148.66 71.07c-.15-.24-.49-.42-.71-.44-.49-.12-.96-.08-1.4-.01-1.76.35-3.34 1.12-4.83 2.01-.74.45-1.46.93-2.15 1.47-.68.53-1.36 1.1-1.92 1.8-1.11 1.36-1.91 2.9-2.7 4.42-.77 1.54-1.46 3.1-2.08 4.71-.23 3.43-.33 6.85-.15 10.29.12 1.72.22 3.44.84 5.17.34.79.72 1.58 1.15 2.34.44.76.91 1.51 1.57 2.16.33.32.72.62 1.21.81.51.18 1.11.11 1.58-.14.22-.14.44-.27.6-.45.18-.17.34-.34.47-.5.28-.32.55-.66.83-.99 1.09-1.34 2.14-2.72 2.96-4.28.4-.78.75-1.61.93-2.5.17-.92.11-1.77.14-2.62.02-1.71.01-3.42.05-5.13.05-1.71.1-3.42.32-5.11.12-.83.23-1.71.59-2.43.43-.76.78-1.54 1.11-2.33.64-1.59 1.21-3.21 1.62-4.9.18-.85.36-1.7.25-2.64-.06-.23-.11-.48-.28-.71zm-.42 3.27c-.31 1.66-.82 3.3-1.44 4.89-.32.79-.63 1.59-1.07 2.31-.41.81-.52 1.67-.66 2.52-.22 1.7-.37 3.41-.48 5.12-.11 1.71-.2 3.42-.25 5.13-.05.85-.02 1.73-.19 2.49-.18.79-.5 1.55-.9 2.28-.8 1.46-1.85 2.8-2.94 4.1-.56.62-1.1 1.4-1.65 1.73-.29.15-.59.19-.9.09-.31-.12-.62-.34-.9-.61-1.12-1.13-1.86-2.71-2.59-4.22-.58-1.47-.76-3.22-.92-4.9-.29-3.39-.37-6.82-.4-10.23.74-1.52 1.54-3.05 2.37-4.53.84-1.48 1.73-2.95 2.81-4.22.53-.63 1.17-1.16 1.85-1.67.67-.5 1.39-.96 2.11-1.38 1.45-.83 2.98-1.63 4.58-1.96.39-.07.8-.12 1.14-.05.21.03.27.07.37.18.09.11.15.29.19.47.13.77.01 1.63-.13 2.46z" fill="#e1ac8f" stroke-width="none" opacity="1"></path><path id="SvgjsPath12306" d="M142.62 80.46c-.58 1.22-1.11 2.47-1.51 3.75-.4 1.29-.75 2.59-1.06 3.9-.29 1.31-.56 2.63-.72 3.97l.08.02c.42-1.28.8-2.56 1.2-3.84.39-1.28.78-2.56 1.2-3.82.41-1.27.78-2.55 1.24-3.8.38-1.05.84-2.1 1.49-3-.37 1.58-.79 3.15-1.13 4.74-.19.9-.36 1.8-.49 2.71-.07.46-.13.92-.17 1.38-.05.46-.04.98-.04 1.39-.05 1.78-.28 3.6-.53 5.39-.14.9-.28 1.79-.47 2.67-.09.44-.2.88-.32 1.3-.01.02-.01.04-.02.06-.04-.85-.09-1.71-.11-2.56-.04-1.28-.1-2.55-.06-3.83l-.08-.01c-.17 1.27-.2 2.56-.25 3.84-.03 1.28-.04 2.56-.05 3.84v.8l.52-.59c.4-.46.51-.9.68-1.34.15-.45.28-.89.39-1.34.23-.9.42-1.8.58-2.71.31-1.82.56-3.63.58-5.51-.09-1.79.24-3.58.47-5.39.26-1.8.5-3.62.9-5.4l.12-.54-.35.42c-.88 1.08-1.49 2.29-2.09 3.5z" fill="#c27b55" stroke-width="none" opacity="1"></path></g></g><g id="svga-group-faceshape-wrap"><g id="svga-group-faceshape-single"><path id="SvgjsPath12381" d="M139.24 92.97c.2-5.9.88-22.43.88-22.43l.19-2.65s.68-8.8-.22-12.9c-2.2-10-5.99-16.09-14.89-20.89-9.3-5-25.2-4.8-25.2-4.8s-15.9-.2-25.2 4.8C66 38.9 62.01 44.94 59.81 54.94c-.9 4 0 13.53 0 13.53s.79 19.24.99 25.14 1.4 15.97 1.8 18.17c.4 2.2 13.69 35.49 19.09 40.39 1.5 1.4 18.31 1.22 18.31 1.22s17.01.15 18.51-1.25c5.4-4.9 18.48-37.78 18.84-40.56.6-2.2 1.59-12.71 1.89-18.61z" fill="#f0c7b1" stroke-width="none" opacity="1"></path><path id="SvgjsPath12382" d="M139.12 92.96c.26-6.81.49-13.61.62-20.43.01-1.7.11-3.41.19-5.11.08-1.69.11-3.39.1-5.08-.01-1.69-.07-3.38-.25-5.04-.08-.84-.22-1.63-.42-2.43-.21-.81-.41-1.63-.66-2.43-.94-3.22-2.25-6.31-4.13-8.99-.93-1.34-2-2.58-3.19-3.7-1.2-1.11-2.51-2.09-3.88-3.01-5.47-3.73-12.17-5.03-18.82-5.87-3.34-.38-6.71-.6-10.06-.6-3.36.02-6.74.23-10.08.66-3.34.44-6.66 1.07-9.83 2.13-1.57.57-3.11 1.18-4.57 2.03-1.47.81-2.89 1.72-4.2 2.76a23.742 23.742 0 0 0-6.44 7.61c-.79 1.48-1.43 3.04-1.99 4.63-.54 1.6-.95 3.24-1.32 4.89-.32 1.61-.37 3.31-.37 5s.07 3.38.18 5.08c.28 3.37.45 6.8.62 10.19l1.12 20.39c.27 3.37.64 6.75 1.05 10.11.21 1.68.43 3.37.69 5.02.11.88.33 1.41.63 2.26.28.78.6 1.57.9 2.36 2.5 6.3 5.17 12.56 8 18.72 1.43 3.07 2.89 6.13 4.46 9.11.8 1.48 1.59 2.97 2.47 4.36.41.73.89 1.38 1.35 2.04l.34.5.37.41.36.41.18.21c.08.07-.08-.07-.04-.03.1.06.51.17.87.23.37.07.77.13 1.17.18.81.1 1.64.17 2.47.23 1.67.11 3.36.18 5.04.22 3.39.09 6.75.09 10.17.11 3.39 0 6.78-.04 10.14-.22 1.65-.1 3.4-.19 4.85-.5.18-.04.34-.09.44-.12.05-.02.1-.04.04-.01-.06.08.06-.06.11-.11l.75-.83c.48-.63.95-1.3 1.41-1.98 1.81-2.78 3.37-5.81 4.91-8.81 1.55-3.01 3-6.09 4.43-9.17 1.42-3.09 2.79-6.2 4.12-9.33.65-1.57 1.31-3.14 1.93-4.72.6-1.57 1.28-3.19 1.68-4.75l.01-.04c.36-1.47.54-3.04.76-4.57.2-1.54.38-3.09.54-4.64.33-3.11.6-6.22.78-9.33zm.24.02c-.15 3.12-.39 6.23-.66 9.34-.13 1.56-.27 3.11-.43 4.66-.18 1.56-.31 3.1-.65 4.67l.01-.04c-.37 1.76-.96 3.32-1.51 4.95-.56 1.61-1.15 3.21-1.74 4.82-1.2 3.19-2.44 6.37-3.72 9.54-2.61 6.32-5.21 12.61-8.74 18.62-.48.74-.97 1.48-1.51 2.21l-.94 1.08c-.1.1-.1.15-.35.33-.23.17-.37.22-.52.29-.3.12-.54.2-.78.25-1.87.43-3.54.54-5.28.67-3.44.22-6.86.29-10.28.32-3.39.01-6.84.08-10.25-.04-1.71-.05-3.43-.11-5.16-.23-.87-.06-1.73-.13-2.62-.24-.44-.06-.89-.12-1.35-.21-.47-.1-.91-.17-1.57-.48-.14-.06-.49-.31-.56-.39l-.24-.27-.48-.54-.48-.55-.38-.55c-.51-.74-1.03-1.48-1.45-2.23-.91-1.5-1.7-3.02-2.51-4.55-1.56-3.06-3.01-6.17-4.41-9.29-2.77-6.25-5.41-12.54-7.81-18.95-.29-.81-.59-1.6-.87-2.43-.27-.75-.61-1.84-.68-2.66-.23-1.71-.42-3.41-.6-5.11-.35-3.4-.64-6.8-.79-10.23l-.52-20.43c-.09-3.41-.14-6.79-.41-10.21-.09-1.71-.14-3.42-.13-5.13.02-1.71.08-3.44.44-5.17.77-3.33 1.79-6.65 3.39-9.72 1.63-3.04 3.85-5.8 6.55-7.97 1.33-1.1 2.77-2.08 4.25-2.96 1.46-.92 3.08-1.63 4.68-2.27 3.25-1.21 6.63-1.97 10.02-2.53 3.4-.55 6.82-.87 10.27-1.01 3.46-.13 6.9.03 10.33.37 3.43.33 6.85.93 10.22 1.85.85.21 1.67.52 2.51.78.82.32 1.65.63 2.45 1 1.63.76 3.13 1.62 4.59 2.6 1.46.99 2.84 2.09 4.11 3.33 1.25 1.25 2.38 2.64 3.35 4.12s1.74 3.08 2.38 4.7c.65 1.62 1.16 3.29 1.57 4.97.22.84.39 1.68.57 2.52.18.86.29 1.76.33 2.62.11 1.74.1 3.45.04 5.16-.06 1.71-.17 3.42-.31 5.12-.16 1.7-.33 3.38-.41 5.09-.37 6.8-.68 13.6-.96 20.41z" fill="#c27b55" stroke-width="none" opacity="1"></path></g></g><g id="svga-group-mouth-single-move" transform="matrix(1,0,0,1,0,0)"><g id="svga-group-mouth-single"><path id="SvgjsPath12481" d="M88.53 129.83s4.06 4.15 10.11 4.69 12.45-4.15 12.45-4.15-12.81 5.96-22.56-.54z" fill="#d19271" stroke-width="none" opacity="1"></path><path id="SvgjsPath12482" d="M83.99 123.04s1.47.84 3.56 1.38c2.32.6 5.38.95 7.57 1.65 2.99.95 3.52 2.68 4.69 2.49 1.17-.18 2.37-2.32 4.63-2.77 2.26-.45 8.66 0 11.37-1.49 0 0-10.89-1.46-16.48-1.65-7.61-.26-15.34.39-15.34.39z" fill="#da7c87" stroke-width="none" opacity="1"></path></g></g><g id="svga-group-eyes-left-move" transform="matrix(1,0,0,1,0,0)"><g id="svga-group-eyes-left"><g id="svga-group-eyesback-left"><path id="SvgjsPath12341" d="M80.2 74.2c7.5 0 13.5 5.8 13.5 13s-6 13-13.5 13-13.5-5.8-13.5-13 6-13 13.5-13z" fill="#ffffff" stroke-width="none" opacity="1"></path></g><g id="svga-group-eyesiriswrapper-left" transform="matrix(1,0,0,1,0,0)"><g id="svga-group-eyesiriscontrol-left" transform="matrix(1,0,0,1,0,0)"><g id="svga-group-eyesiris-left"><path id="SvgjsPath12416" d="M80.2 81.6c3.1 0 5.6 2.5 5.6 5.6s-2.5 5.6-5.6 5.6-5.6-2.5-5.6-5.6 2.5-5.6 5.6-5.6z" fill="#681711" stroke-width="none" opacity="1"></path><path id="SvgjsPath12417" d="M80.2 84.2c1.7 0 3 1.3 3 3s-1.3 3-3 3-3-1.3-3-3 1.3-3 3-3z" fill="#000000" stroke-width="none" opacity="1"></path><path id="SvgjsPath12418" d="m79.5 84.8-.6-.6c-.2-.2-.5-.3-.8-.3s-.6.1-.8.3c-.2.2-.3.5-.3.8s.1.6.3.8l.6.6c.2.2.5.3.7.3.3 0 .6-.1.7-.3.6-.6.6-1.2.2-1.6zm2.7 5.1c1 0 1-1.5 0-1.5-.9 0-.9 1.5 0 1.5z" fill="#ffffff" stroke-width="none" opacity="1"></path></g></g></g><g id="svga-group-eyesfront-left"><path id="SvgjsPath12349" d="M80.2 73.7c-7.8 0-14.1 6.1-14.1 13.6s6.3 13.6 14.1 13.6 14.1-6.1 14.1-13.6S88 73.7 80.2 73.7zm-4.9 20.2c-4.8-1.7-6.4-6.7-7.2-10.1-.9-3.5 13.8-3.5 17.5-.4 3.8 3 5.3 7.3 5.5 9.6.1-.1-11 2.6-15.8.9z" fill="#f0c7b1" stroke-width="none" opacity="1"></path><path id="SvgjsPath12350" d="M91.1 92.5c-.1-.5-.1-1-.3-1.4l-.3-.9c-.5-1.9-1.5-4.5-3-6.2-1.2-1.3-4.1-4.4-9-4.4s-8.2 1.6-8.8 1.9c-.2.1-.5.3-.7.5-.4.2-.8.5-1.1 1-.1.2-.1.3-.1.5-.1.1-.1.2-.1.2h.1c0 .1 0 .3.1.4.1.3.2.6.2.9l.6 1.8c.4 1.2.9 2.3 1.6 3.4.7 1.1 1.5 2 2.5 2.8s2.2 1.3 3.4 1.6c2.5.5 5 .3 7.5 0s4.9-.8 7.3-1.5c.2-.2.2-.4.1-.6zm0 .4c-2.4.4-4.9.8-7.3 1.1-1.2.1-2.5.2-3.7.2-1.2 0-2.5 0-3.7-.2-2.4-.4-4.6-1.9-5.8-4-.7-1-1.2-2.2-1.6-3.3-.2-.6-.4-1.2-.5-1.8-.1-.3-.2-.6-.2-.9 0-.2-.1-.3-.1-.4 1.4-.4 6.6-1.9 10.5-1.9 4.5.1 7.9 3.6 9.3 5.1 1.2 1.1 3 5.1 3.1 6.1z" fill="#000000" stroke-width="none" opacity="1"></path></g></g></g><g id="svga-group-eyes-right-move" transform="matrix(1,0,0,1,0,0)"><g id="svga-group-eyes-right"><g id="svga-group-eyesback-right"><path id="SvgjsPath12342" d="M119.8 74.2c7.5 0 13.5 5.8 13.5 13s-6 13-13.5 13-13.5-5.8-13.5-13 6-13 13.5-13z" fill="#ffffff" stroke-width="none" opacity="1"></path></g><g id="svga-group-eyesiriswrapper-right" transform="matrix(1,0,0,1,0,0)"><g id="svga-group-eyesiriscontrol-right" transform="matrix(1,0,0,1,0,0)"><g id="svga-group-eyesiris-right"><path id="SvgjsPath12419" d="M119.8 82.3c2.7 0 4.9 2.2 4.9 4.9s-2.2 4.9-4.9 4.9-4.9-2.2-4.9-4.9 2.2-4.9 4.9-4.9z" fill="#681711" stroke-width="none" opacity="1"></path><path id="SvgjsPath12420" d="M119.8 84.6c1.4 0 2.6 1.2 2.6 2.6s-1.2 2.6-2.6 2.6-2.6-1.2-2.6-2.6 1.2-2.6 2.6-2.6z" fill="#000000" stroke-width="none" opacity="1"></path><path id="SvgjsPath12421" d="M119.2 85.1c-.2-.2-.3-.4-.5-.5-.2-.2-.4-.3-.7-.3-.2 0-.5.1-.7.3-.2.2-.3.4-.3.7 0 .2.1.5.3.7.2.2.4.3.5.5.2.2.4.3.7.3.2 0 .5-.1.7-.3.3-.5.3-1.1 0-1.4zm2.4 4.5c.8 0 .9-1.3 0-1.3-.8-.1-.8 1.3 0 1.3z" fill="#ffffff" stroke-width="none" opacity="1"></path></g></g></g><g id="svga-group-eyesfront-right"><path id="SvgjsPath12351" d="M119.8 73.7c-7.8 0-14.1 6.1-14.1 13.6s6.3 13.6 14.1 13.6 14.1-6.1 14.1-13.6-6.3-13.6-14.1-13.6zm5.3 19.5c-4.4 1.8-15 .1-15 .1.1-1.9 1.3-5.8 4.7-8.7 3.4-2.9 17.2-3.8 16.6-.7-.7 3.1-1.9 7.6-6.3 9.3z" fill="#f0c7b1" stroke-width="none" opacity="1"></path><path id="SvgjsPath12354" d="M131.6 84.1s0-1.3-.9-1.7c-.6-.2-4.4-1-9.1-.7-2.6.2-4.6 1.1-6.1 2.1-.3.2-.6.3-.8.5-.9.8-1.7 1.6-2.4 2.6-1.3 1.9-2.3 4.1-2.3 6.4 0 .3.1.8.1.8s.1-.3.2-.7c2.2.4 4.3.7 6.6.8 1.2.1 2.3.1 3.4.1 1.2 0 2.3-.2 3.4-.4s2.2-.8 3.2-1.4c.9-.7 1.7-1.6 2.4-2.5.6-1 1.1-2 1.5-3.1.2-.5.3-1.1.5-1.7l.2-.8c0-.1 0-.1.1-.2v-.1zm-.4.1-.2.8c-.1.6-.3 1.1-.4 1.7-.4 1.1-.8 2.1-1.4 3.1-1.2 1.9-3.3 3.2-5.5 3.6-.6.1-1.1.2-1.7.3-.6 0-1.1.1-1.7.1-1.1.1-2.3.1-3.4 0-2.2-.1-4.4-.2-6.6-.4.4-1.5 1.5-4.6 2.4-5.7 1.2-1.5 4.2-4.5 8.5-4.9 3.6-.3 8.6.8 10 1.2v.2z" fill="#000000" stroke-width="none" opacity="1"></path></g></g></g><g id="svga-group-facehighlight-single"></g><g id="svga-group-eyebrows-left-move" transform="matrix(1,0,0,1,0,0)"><g id="svga-group-eyebrows-left-rotate" transform="matrix(1,1.7453292519943295e-9,-1.7453292519943295e-9,1,1.2810720306788426e-7,-1.3892820049932197e-7)"><g id="svga-group-eyebrows-left"><path id="SvgjsPath12245" d="M93.2 68.2s-1.8 4.7-3.3 5.6-18.1.7-18.1.7-4.2 2.2-5.5 3.9l3.3-8.3.4.4 10.4-1.7-1.2.8 13-1.7-1.3 2.2 2.3-1.9z" fill="#2a232b" stroke-width="none" opacity="1"></path><path id="SvgjsPath12246" d="m66 79.1.4-.6c.3-.4.7-.8 1.1-1.2.2-.2.4-.3.7-.5.2-.2.5-.3.7-.5.5-.3 1-.6 1.4-.9s1-.6 1.5-.8c2.2.1 4.3.1 6.4.1 2.2 0 4.3 0 6.5-.1 1.1-.1 2.2-.1 3.2-.2.5-.1 1.1-.1 1.6-.3l.2-.1c.1 0 .1-.1.2-.1.1-.1.2-.2.3-.2l.3-.3.2-.3c.3-.4.5-.8.8-1.2l.6-1.2c.2-.4.4-.8.5-1.2.1-.2.2-.4.2-.6l.1-.3.1-.2v-.2l-1.2.9c-.3.2-.5.4-.8.6l1.1-1.8.1-.2h-.3l-3.3.4-3.3.4c-1.1.1-2.2.3-3.3.4l-2.2.3.4-.2.9-.6-1.1.2-2.6.4-2.6.4-5.1.8-.4-.3-.2-.2-.1.3-1.6 4.2-.4 2.2c-.3.7-.5 1.4-.8 2.1l-.2.6zm.6-1.1c.2-.5.4-1.1.7-1.6l.8-2.1 1.6-3.8.2.2.1.1h.1l5.2-.8 2.6-.4 1.5-.2-.4.1-.8.5 1.1-.1 3.3-.4c1.1-.1 2.2-.3 3.2-.5l3.2-.5 3-.4-1.1 2-.3.5.4-.4 1.1-.9c.4-.3.7-.6 1.1-1l-.1.1v.1l-.1.1-.1.3-.3.6-.6 1.2c-.4.8-.9 1.6-1.4 2.3l-.2.3-.2.2c-.1.1-.2.1-.3.2l-.1.1-.2.1c-.5.1-1 .2-1.6.2-1.1.1-2.1.2-3.2.2-2.2.1-4.3.1-6.5.2-2.2 0-4.3.1-6.5.1-1 .6-2 1.1-3 1.8-.5.3-.9.7-1.4 1-.3.1-.6.4-.8.6zm23.1-9c-.6.3-1.1.7-1.6 1-.5.3-1.1.7-1.6 1.1-.5.4-1 .7-1.6 1.1s-1 .8-1.5 1.1l.4.2c.2-.7.3-1.3.4-2l.1-.4-.4.3c-.6.5-1.2 1-1.7 1.5.7-.4 1.3-.8 1.9-1.3l-.3-.1c-.2.7-.4 1.3-.6 1.9l-.2.6.6-.4c.5-.4 1-.7 1.5-1.1l1.5-1.2 1.5-1.2c.6-.3 1.1-.7 1.6-1.1zm-10.9 1.6c-.7.4-1.4.9-2.2 1.4-.7.5-1.4.9-2.1 1.4l.4.2c.1-.3.2-.6.4-1 .1-.3.2-.6.4-1l.2-.5-.5.2c-.5.2-1.1.5-1.6.7s-1 .5-1.5.8c-.5.3-1 .6-1.4.9-.4.3-.9.7-1.2 1.1.4-.3.9-.6 1.4-.9.5-.3 1-.6 1.5-.8.5-.2 1-.5 1.5-.7.5-.2 1-.5 1.6-.7l-.3-.2c-.1.3-.2.6-.4 1-.1.3-.2.6-.3 1l-.2.6.6-.4c.7-.5 1.3-1 2-1.5.4-.5 1.1-1 1.7-1.6z" fill="#1b141c" stroke-width="none" opacity="1"></path></g></g></g><g id="svga-group-eyebrows-right-move" transform="matrix(1,0,0,1,0,0)"><g id="svga-group-eyebrows-right-rotate" transform="matrix(1,1.7453292519943295e-9,-1.7453292519943295e-9,1,1.2967792883955553e-7,-2.1039942055267602e-7)"><g id="svga-group-eyebrows-right"><path id="SvgjsPath12247" d="M108.2 71.1s2.3 4.4 3.6 5.2c1.4.7 15.7-1.3 15.7-1.3s4 1.7 5.3 3.2l-4-7.8-.3.4-9.2-.5 1.2.6-11.5-.2 1.4 2-2.2-1.6z" fill="#2a232b" stroke-width="none" opacity="1"></path><path id="SvgjsPath12248" d="M132.9 78.2c-.3-.7-.7-1.3-1-2l-1-2-2-3.9-.1-.3-.2.2-.3.3-4.5-.3-2.3-.1-2.3-.1-1-.1.9.5.4.2H108.7l.1.2 1.2 1.6c-.2-.2-.5-.3-.8-.5-.4-.2-.8-.5-1.1-.8v.2l.1.2.2.3.3.6c.2.4.4.8.7 1.2.2.4.5.8.7 1.1s.5.7.8 1.1l.2.3.3.2c.1.1.2.1.3.2.1 0 .1.1.2.1h.2c.5.1 1 .1 1.4.1.9 0 1.9-.1 2.8-.2 1.9-.1 3.7-.4 5.6-.6 1.8-.2 3.7-.5 5.5-.8.5.2.9.4 1.4.6.5.2.9.5 1.4.7.2.1.4.3.7.4.2.1.4.3.6.4.4.3.8.6 1.1 1l.4.5-.1-.5zm-1.2-1.1c-.4-.3-.9-.6-1.3-.8-.9-.5-1.8-1-2.8-1.4-1.8.2-3.7.5-5.6.7-1.9.2-3.7.4-5.6.6-.9.1-1.9.2-2.8.2-.5 0-.9 0-1.4-.1H111.9c-.1-.1-.2-.1-.3-.2l-.2-.2-.2-.2c-.6-.7-1.1-1.4-1.6-2.2-.2-.4-.5-.8-.7-1.1l-.3-.6-.2-.3-.1-.2v-.1l-.1-.1c.4.3.7.6 1.1.8l1.1.8.4.3-.3-.4-1.3-1.8 2.6.1 2.9.1c.9 0 1.9.1 2.9.1l2.9.1h.9l-.8-.4-.3-.2 1.3.1 2.3.1 4.6.2h.1l.1-.1.1-.2 1.9 3.6 1 1.9c.3.5.5 1 .8 1.5-.2-.2-.5-.4-.8-.6zm-20.4-5.6c.5.3 1 .6 1.6.8s1 .6 1.5.9l1.5.9 1.5.9-.3.2c-.2-.6-.4-1.3-.7-1.9l-.1-.4.3.3c.6.4 1.1.8 1.7 1.3-.6-.3-1.2-.7-1.8-1.1l.2-.2c.3.6.5 1.2.8 1.9l.2.6-.5-.3-1.5-.9c-.5-.3-1-.6-1.5-1s-1-.7-1.4-1c-.5-.3-1-.7-1.5-1zm9.6.3c.7.3 1.4.7 2.1 1.1s1.3.8 2 1.2l-.3.2c-.2-.3-.3-.6-.5-.9-.2-.3-.3-.6-.5-.9l-.2-.4.5.2c.5.2 1 .3 1.5.5s.9.4 1.4.6c.5.2.9.5 1.4.8.4.3.9.6 1.2.9-.4-.3-.9-.5-1.3-.8-.5-.2-.9-.4-1.4-.6-.5-.2-.9-.4-1.4-.6-.5-.2-1-.3-1.4-.5l.3-.3c.2.3.3.6.4.9.2.3.3.6.4.9l.3.6-.6-.4c-.7-.4-1.3-.8-1.9-1.3-.7-.3-1.4-.7-2-1.2z" fill="#1b141c" stroke-width="none" opacity="1"></path></g></g></g><g id="svga-group-beardwrap"><g id="svga-group-beard-single-move" transform="matrix(1,0,0,1,0,0)"><g id="svga-group-beard-single"></g></g></g><g id="svga-group-mustache-single-move" transform="matrix(1,0,0,1,0,0)"><g id="svga-group-mustache-single"></g></g><g id="svga-group-nose-single-move" transform="matrix(1,0,0,1,0,0)"><g id="svga-group-nose-single"><path id="SvgjsPath12466" d="M99.1 116.5c.67.12 4.53-3.31 4.53-3.31s2.06 1.59 3.62 1.43c1.56-.16 2.44-1.08 3-1.96.56-.88-.89-3.1-1.78-4.41-.9-1.31-3.54-5.22-4.09-7.02-1.07-3.45-3-4.76-4.92-4.64-1.92.12-4.04 1.52-4.6 3.44-.56 1.92-.72 4.28-1.8 5.76s-3.32 4-3.56 4.72c-.24.72-.11 2.8 1.24 3.56 1.73.97 4.3-.51 4.3-.51s3.18 2.78 4.06 2.94z" fill="#f0c7b1" stroke-width="none" opacity="1"></path><path id="SvgjsPath12467" d="M110.28 110.87c-.42-1.01-1.08-1.86-1.81-2.61.57.88 1.08 1.8 1.39 2.76.15.48.24.97.16 1.42-.05.23-.12.41-.26.6-.13.2-.29.39-.47.54-.69.66-1.7.91-2.68.78-.49-.06-.99-.2-1.46-.39-.45-.16-.86-.39-1.29-.62.38-.56.72-1.15 1.02-1.76-.97.91-1.89 1.83-2.87 2.64-.49.4-.98.8-1.51 1.09-.51.3-1.07.55-1.51.52-.12.01-.21-.02-.31-.04-.09-.05-.17-.06-.3-.16-.24-.15-.49-.36-.74-.55-.5-.39-.99-.82-1.49-1.23-.99-.84-1.99-1.69-3.07-2.48a21.8 21.8 0 0 0 1.68 2.24c-.5.22-1.01.41-1.53.52-.64.12-1.3.15-1.84-.1-1.09-.53-1.72-1.83-1.54-2.94.05-.28.13-.5.3-.74.17-.26.36-.53.56-.79.4-.52.82-1.02 1.26-1.52l.66-.74c.26-.28.46-.56.67-.84.41-.57.77-1.18 1.07-1.83.3-.65.48-1.4.59-2.06.12-.68.22-1.35.3-2.02.15-1.35.27-2.69.31-4.04.1-2.7.03-5.42-.51-8.07.05 2.69-.14 5.35-.4 8-.15 1.32-.29 2.65-.5 3.96-.1.66-.2 1.31-.32 1.96-.12.66-.27 1.22-.54 1.79a9.34 9.34 0 0 1-.94 1.65c-.18.26-.37.53-.57.74-.23.26-.45.51-.66.78-.43.53-.85 1.07-1.24 1.63-.2.28-.39.57-.57.88-.2.33-.34.76-.37 1.14-.13 1.57.85 3.05 2.25 3.55.73.23 1.47.11 2.12-.11.54-.19 1.03-.46 1.49-.77.24.28.47.57.71.84.44.5.91.96 1.41 1.42.25.23.51.44.82.65.13.1.36.22.57.3.22.06.44.12.66.11.88 0 1.55-.38 2.14-.76.58-.41 1.1-.86 1.55-1.37.44-.48.84-.99 1.21-1.53.75.66 1.64 1.25 2.68 1.45.54.12 1.11.12 1.66 0 .55-.14 1.07-.41 1.49-.8.21-.19.39-.42.54-.65.17-.23.29-.54.32-.84.06-.55-.08-1.1-.29-1.6z" fill="#c27b55" stroke-width="none" opacity="1"></path></g></g><g id="svga-group-hair-front"><path id="SvgjsPath12546" d="M62.3 84.7s1.5-2.7 1.7-7.3 0-10.9.2-14.2c.2-3.3 1-8.2 1.5-10 .4-1.8.6-3.5 1.8-5.3 1.2-1.8 2.4-3.6 5.2-4.3 2.8-.7 7.6-3 8.7-4.3 0 0 3-.6 3.7-1 0 0 5.3 2.6 7.2 2.8 1.9.2 8.2.5 12.3-.7s10.1-2.6 12.4-2.2 12.2-1.1 16.6 12.7c0 0 1.1 4.3 1.2 10.4.1 6.1.3 10.1.8 11.9.4 1.8 1.2 5.6 1.2 7.3s.6 2.5.6 2.5 1.7-3.8 2.2-5.8 1.9-11.6 2.1-13.1c.2-1.5.6-6.4.9-8.5.3-2 0-9.5 0-9.5s.1-4.7-.6-6.1c-.7-1.3-1.4-3.5-2.9-4.8 0 0 .1-1.6-.1-2.7s-2.1-5.3-8.2-10.6-13.3-9.4-21.6-9.4c0 0 2.9-.4 4.8-.6 0 0-5.5-.7-8.1-.3l4.3-.6s-7.2-1.4-12.3.1c0 0 .7-1.2 4.2-2.5 0 0-7.8-2.1-15.4 3.1 0 0-5.9-.3-11.7 6.8 0 0-3.7 1.1-4.7 1.8s-6.2 3.1-6.9 11.4c0 0-5 .6-5.5 11l.5 8.7s-1.8 3.6-1.8 7.3 1 6 1.1 7.8c.1 1.8.7 5.2.7 5.2s1.8 4.2 2.1 5.9c.2 1.9 1.8 7.1 1.8 7.1z" fill="#2a232b" stroke-width="none" opacity="1"></path><path id="SvgjsPath12547" d="M143 46.5c.1-1 .1-2 0-3s-.3-2-.6-3-.7-1.9-1.1-2.8c-.4-.8-1-1.6-1.6-2.4.2-1.8-.4-3.5-1.2-5-.8-1.5-1.9-2.9-3.1-4.2-2.3-2.6-5-4.8-7.7-6.9-2.8-2-5.8-3.8-9.1-4.9-1.6-.6-3.3-1-5-1.2-1.7-.2-3.4-.3-5.1-.1 3.4-.3 6.8.5 10 1.7s6.1 3 8.8 5.1c1.4 1 2.6 2.1 3.9 3.3 1.3 1.1 2.5 2.3 3.6 3.6 1.1 1.3 2.1 2.6 2.9 4.1.8 1.4 1.3 3.1 1.1 4.6v.2l.2.2c.6.7 1.1 1.5 1.6 2.3.4.8.8 1.7 1.1 2.6s.5 1.8.5 2.8c.1 1 .1 1.9 0 2.9.2 3.1.2 6.2.1 9.3-.1 3.1-.7 6.1-1.1 9.2-.4 3.1-.8 6.2-1.3 9.2-.2 1.5-.5 3.1-.9 4.5-.5 1.4-1.1 2.9-1.5 4.4.5-1.5 1.1-2.9 1.7-4.3.5-1.5.8-3 1.1-4.6.6-3.1 1.1-6.1 1.5-9.2l.7-4.6c.3-1.5.4-3.1.5-4.7.2-2.9.2-6 0-9.1zm-7.5 1.3c.1-.8.4-1.6.6-2.4.2-.8.5-1.6.8-2.4l.8-2.4.4-1.2.2-.6.1-.3.1-.2v-.1.1-.1c-.1 0 0 0-.1.1l-.1.1-.2.3-.3.5-.6 1.1c-.4.8-.8 1.5-1.1 2.3-.7 1.6-1.3 3.2-1.6 4.9-.2 1.2-.2 2.4-.2 3.6-.1-.5-.3-1-.4-1.5-.5-1.8-1.2-3.6-2-5.3s-1.7-3.4-3-4.9c-2.4-3-5.9-4.9-9.4-6.3-3.5-1.2-6.3-3.8-8.2-6.9-.9-1.5-1.7-3.3-1.8-5.1-.1-.9.1-1.8.4-2.6.4-.8.9-1.5 1.7-2 1.4-1.1 3.3-1.6 5.1-1.5 1.8.1 3.7.7 5.3 1.6-1.6-1-3.4-1.6-5.3-1.8-1.9-.2-3.9.2-5.4 1.4-.8.5-1.5 1.3-1.9 2.2-.4.9-.6 1.9-.5 2.9.1 2 .8 3.8 1.8 5.4 1.9 3.3 5 6 8.5 7.3 3.4 1.4 6.7 3.3 8.9 6.1 1.8 2.2 3 4.8 4 7.5-1.3-3.2-3.6-6.2-6.7-8-1.8-1.1-3.9-1.7-6-1.8h-.4c-3.2-1-6.6-1.6-10-1.7h-2.5l-.8-.1c-.5 0-1.1-.2-1.6-.3-.5-.2-1-.3-1.5-.6-2-.9-3.7-2.3-4.8-4.1-1.2-1.8-2-3.9-2.3-6-.3-2.2-.2-4.4.5-6.4s2.3-3.7 4.1-4.9c1.9-1.1 4.1-1.8 6.3-2.1-2.2.1-4.5.6-6.5 1.7s-3.7 2.8-4.6 5c-.2.5-.4 1.1-.5 1.7-.1.6-.2 1.1-.2 1.7 0 .6-.1 1.1-.1 1.7 0 .6.1 1.1.1 1.7.3 2.3 1.1 4.5 2.3 6.5 1.3 1.9 3.2 3.5 5.3 4.4 2.1 1 4.6 1.1 6.8.9 2.2-.1 4.4.1 6.6.5.6.1 1.3.2 1.9.3-1.5 0-3 0-4.4.2-4.2.5-8.2 2-12.2 2.6-2 .3-4.1.4-6.1.2-2.1-.1-4.1-.6-5.9-1.4-1.8-.8-3.5-2-4.8-3.6-1.3-1.5-2.2-3.4-2.8-5.3s-.8-4-.7-6c.1-2 .3-4.1 1.1-6 1.6-3.7 4.9-6.6 8.6-8.2 3.4-1.5 7.3-2 10.9-1.4-.5.2-1 .3-1.5.6-.4.2-.8.4-1.2.7-.4.3-.7.6-.9 1.1l-.1.4.4-.1c1-.4 2.1-.6 3.1-.7 1.1-.1 2.1-.2 3.2-.2s2.2.1 3.2.1c1.1.1 2.2.2 3.2.4-1.1-.2-2.1-.4-3.2-.5s-2.2-.2-3.2-.2c-1.1 0-2.2 0-3.3.1-.9.1-1.8.2-2.7.5.2-.2.3-.4.5-.5.3-.2.7-.4 1.1-.6.8-.3 1.6-.6 2.5-.8l1.1-.2-1.1-.3c-4-1-8.5-.6-12.4 1-1.3.5-2.6 1.2-3.7 2.1-1.5.2-2.9.6-4.3 1.2-1.7.7-3.3 1.7-4.7 2.8-.4.3-.7.6-1.1.9-.3.3-.6.7-.9 1-.3.4-.5.8-.8 1.1-3.1.6-6.1 2.2-8.3 4.6-1.3 1.5-2.1 3.3-2.7 5.2-.3 1.2-.5 2.4-.5 3.6-1.5.5-2.8 1.6-3.6 3-.9 1.5-1.3 3.3-1.5 5-.4 3.3-.4 6.7 0 10.1v.2c-.9 2.7-1.6 5.5-1.8 8.4V61c.1.7.2 1.5.4 2.2.3 1.4.5 2.8.7 4.2.2 1.4.4 2.8.8 4.2.2.7.4 1.4.7 2.1.3.6.5 1.3.8 2 .9 2.7 1.7 5.4 2.4 8.2-.5-2.8-1-5.6-1.9-8.4-.2-.7-.4-1.4-.7-2.1-.3-.7-.5-1.3-.6-2-.3-1.4-.4-2.8-.6-4.2-.2-1.4-.4-2.8-.7-4.2-.2-.7-.3-1.4-.3-2v-2c.1-2.2.6-4.4 1.2-6.5.7 2.9 2.2 8.2 5.7 12.4 0 1.1.1 2.2 0 3.4 0 1.9-.1 3.8-.1 5.6 0 1.9-.1 3.8-.3 5.6-.1.9-.1 1.9-.3 2.8-.2.9-.2 1.9-.7 2.7.5-.8.7-1.8.9-2.7s.4-1.9.5-2.8c.2-1.9.4-3.8.6-5.6.2-1.9.2-3.8.3-5.7.1-1.9 0-3.8 0-5.6.1-3.7.6-7.5 1.5-11.1.4-1.8 1-3.6 2.2-5 1.2-1.4 2.8-2.4 4.6-3-1.8.4-3.6 1.4-5 2.7-.7.7-1.2 1.5-1.6 2.4-.4.9-.7 1.8-1 2.7-.6 1.8-.9 3.7-1.2 5.6-.3 1.9-.5 3.8-.6 5.7v.6c-4.1-5.7-5.1-13-5.1-13.1h-.1c-.2-1.6-.3-3.2-.4-4.8-.1-1.7 0-3.4.1-5.2.1-1.7.4-3.4 1.2-4.9.7-1.3 1.8-2.5 3.3-3.1 0 .7 0 1.5.1 2.2.3 1.9 1 3.9 2.4 5.3 1.4 1.5 3.4 2.2 5.3 2.4 3.9.6 7.9-.6 10.8-3-1.6 1-3.3 1.8-5.2 2.2-1.8.4-3.7.4-5.5.1-1.8-.4-3.6-1-4.8-2.3-1.2-1.3-1.9-3.1-2.1-4.9-.5-3.6.5-7.5 2.7-10.4 1.2-1.4 2.7-2.6 4.3-3.5 1-.6 2.2-1 3.3-1.4-.2.4-.3.7-.5 1.1-.7 1.7-1.1 3.6-1.2 5.4-.1 1.9 0 3.7.4 5.5.4 1.8 1 3.6 2.2 5.1.6.7 1.4 1.4 2.2 1.8.8.4 1.7.7 2.6.9 1.8.3 3.6.2 5.2-.6 1 .8 2.2 1.5 3.4 2.1 2 .8 4.1 1.3 6.2 1.4 2.1.2 4.2.1 6.3-.2 4.2-.7 8.1-2.2 12.2-2.8 2.6-.3 5.3-.5 7.8-.1l1.2.3c-.2-.1-.4-.1-.6-.2 1.3.3 2.5.7 3.6 1.3 3.5 1.9 6.1 5.4 7.5 9.2.1.2.2.5.2.7.5 1.8.9 3.6 1.1 5.4 0 .2 0 .3.1.5 0 .6-.1 1.3-.2 1.9.1-.3.2-.5.3-.8.1 1.3 0 2.6 0 3.9 0 3.7.4 7.5.9 11.2.3 1.8.7 3.7 1.1 5.5.4 1.8.2 3.7.1 5.5.1-.9.3-1.8.4-2.8.1-.9 0-1.9-.1-2.8-.1-.9-.3-1.8-.5-2.8s-.3-1.8-.4-2.8c-.4-3.7-.7-7.4-.6-11.1.1-1.8.1-3.8-.1-5.6 0-.3-.1-.7-.1-1 .1-.5.1-1 .2-1.5.3-1.3.3-3 .6-4.6zM80 38.4c-1.7-.5-3.4-1.3-4.3-2.6-1-1.4-1.5-3.1-1.9-4.9-.3-1.7-.4-3.5-.3-5.3.2-2.4.8-4.8 2-6.9.2 0 .5-.1.8-.1-.2 0-.5 0-.7.1.6-.9 1.2-1.7 2.1-2.4 1.3-1.2 2.8-2.2 4.4-3 1.2-.6 2.6-1.1 3.9-1.5-2.2 1.6-4 3.8-5.2 6.4-.9 2-1.1 4.2-1.2 6.3-.1 2.1.2 4.3.7 6.3s1.6 4 3 5.7c.5.6 1.1 1.2 1.8 1.7-1.7.6-3.5.6-5.1.2z" fill="#1b141c" stroke-width="none" opacity="1"></path></g><g id="svga-group-glasses-single-move" transform="matrix(1,0,0,1,0,0)"><g id="svga-group-glasses-single"><path id="SvgjsPath12491" d="M67 81.67c-1.63 3.03-1.35 9.4 2.14 14.91 3.45 5.46 12.82 5.8 18.41 3.12 5.61-2.69 7.83-8.11 8.08-12.16.26-4.08-3.21-6.41-5.12-7.12-1.92-.72-12.68-2.15-17.58-1.44-4.89.72-5.93 2.69-5.93 2.69z" fill="url(#SvgjsLinearGradient12492)" opacity="1"></path><path id="SvgjsPath12495" d="M133.34 81.67c1.63 3.03 1.35 9.4-2.14 14.91-3.45 5.46-12.82 5.8-18.41 3.12-5.61-2.69-7.83-8.11-8.08-12.16-.26-4.08 3.21-6.41 5.12-7.12 1.92-.72 12.68-2.15 17.58-1.44 4.89.72 5.93 2.69 5.93 2.69z" fill="url(#SvgjsLinearGradient12496)" opacity="1"></path><path id="SvgjsPath12499" d="M120.31 102.38c-4.52 0-8.75-1.41-11.63-3.88-4.48-3.83-5.32-8.51-5.72-10.78-.1-.53-.17-.96-.27-1.22-.53-1.47-1.17-2.21-1.89-2.21h-1.26c-.72 0-1.36.75-1.89 2.21-.09.26-.17.68-.27 1.22-.4 2.26-1.24 6.94-5.72 10.78-2.88 2.47-7.12 3.88-11.63 3.88-2.94 0-5.77-.63-7.78-1.72-5.35-2.91-6.9-9.22-7.32-11.81-.54-3.3-1.89-3.93-2.3-4.04l-.19-5.72c.37-.01 1.49-.05 2.47-.3.06-.01 6.18-1.49 12.16-1.49.99 0 1.92.04 2.77.12 5.64.55 10.17 1.6 13.48 2.37l.73.17c2.3.53 3.91.61 4.67.61.41 0 .63-.02.63-.02h1.64s.21.02.61.02c.76 0 2.38-.08 4.67-.61l.73-.17c3.31-.77 7.85-1.83 13.48-2.37.85-.08 1.78-.12 2.77-.12 5.98 0 12.1 1.48 12.16 1.49.99.25 2.1.29 2.47.3l-.19 5.72c-.41.12-1.76.75-2.3 4.04-.42 2.59-1.97 8.9-7.32 11.81-1.98 1.1-4.82 1.72-7.76 1.72zm2.83-22.83c-.8 0-1.59.02-2.34.05-1.39.06-7.17.47-10.13 1.47-2.96 1-4.95 2.95-5.18 5.08-.27 2.45.53 5.53 2.14 8.21 1.71 2.85 3.96 4.64 6.88 5.49 1.8.52 3.5.76 5.35.76 1.53 0 3.16-.17 4.98-.51 3.23-.62 5.67-2.92 7.25-6.85 1.4-3.49 1.77-8.77-.09-11.21-1.27-1.67-4.17-2.49-8.86-2.49zm-45.94 0c-4.69 0-7.59.81-8.87 2.48-1.86 2.43-1.49 7.72-.09 11.21 1.58 3.94 4.02 6.24 7.25 6.85 1.82.35 3.44.51 4.98.51 1.85 0 3.55-.24 5.35-.76 2.93-.85 5.18-2.64 6.88-5.49 1.61-2.69 2.41-5.76 2.14-8.21-.24-2.13-2.22-4.08-5.18-5.08-2.96-1-8.74-1.41-10.13-1.47-.74-.01-1.53-.04-2.33-.04z" fill="#26120b" stroke-width="none" opacity="1"></path><path id="SvgjsPath12500" d="M123.27 77.43c5.96 0 12.06 1.48 12.12 1.49.91.23 1.91.28 2.38.3l-.18 5.5c-.52.19-1.79.98-2.3 4.12-.42 2.58-1.96 8.83-7.25 11.72-1.99 1.08-4.8 1.7-7.71 1.7-4.49 0-8.69-1.4-11.55-3.85-4.45-3.81-5.28-8.46-5.68-10.71-.1-.56-.17-.97-.27-1.24-.56-1.55-1.22-2.3-2.02-2.3h-1.26c-.8 0-1.46.75-2.02 2.3-.1.27-.17.68-.27 1.24-.4 2.25-1.23 6.9-5.68 10.71-2.86 2.45-7.07 3.85-11.55 3.85-2.92 0-5.73-.62-7.71-1.7-5.3-2.89-6.83-9.15-7.25-11.72-.51-3.14-1.78-3.92-2.3-4.12l-.18-5.5c.46-.01 1.47-.07 2.38-.3.06-.01 6.16-1.49 12.12-1.49.98 0 1.91.04 2.76.12 5.63.55 10.16 1.6 13.46 2.37l.73.17c2.31.53 3.94.61 4.7.61.4 0 .61-.02.62-.02h1.63s.22.02.64.02c.77 0 2.39-.08 4.7-.61l.73-.17c3.3-.77 7.83-1.83 13.46-2.37.84-.08 1.76-.12 2.75-.12m-3.4 23.31c1.54 0 3.18-.17 5-.52 3.28-.62 5.75-2.95 7.35-6.93 1.41-3.52 1.78-8.86-.1-11.33-1.3-1.7-4.24-2.53-8.97-2.53-.71 0-1.48.02-2.35.05-1.39.06-7.19.48-10.17 1.48-3.01 1.01-5.03 3-5.27 5.18-.27 2.48.54 5.58 2.16 8.29 1.72 2.88 4 4.69 6.96 5.54 1.81.52 3.52.77 5.39.77m-39.39 0c1.86 0 3.57-.24 5.39-.77 2.96-.85 5.23-2.66 6.96-5.54 1.62-2.71 2.43-5.81 2.16-8.29-.24-2.18-2.26-4.17-5.27-5.18-2.97-1-8.77-1.42-10.17-1.48-.87-.04-1.64-.05-2.35-.05-4.73 0-7.67.83-8.97 2.53-1.89 2.47-1.52 7.81-.1 11.33 1.6 3.98 4.07 6.31 7.35 6.93 1.82.35 3.45.52 5 .52m42.79-23.57c-.95 0-1.88.04-2.78.13-6.07.59-10.85 1.77-14.23 2.55-2.25.52-3.84.61-4.64.61-.4 0-.61-.02-.61-.02h-1.66s-.21.02-.61.02c-.81 0-2.39-.09-4.65-.61-3.38-.78-8.16-1.96-14.23-2.55-.9-.09-1.84-.12-2.78-.13-5.44 0-11.18 1.25-12.19 1.5-1.18.29-2.57.29-2.57.29l.2 5.94s1.69.19 2.3 3.96c.61 3.74 2.54 9.26 7.39 11.9 2.04 1.11 4.85 1.74 7.84 1.74 4.1 0 8.53-1.18 11.72-3.91 5.55-4.75 5.53-10.69 6.02-12.05.49-1.35 1.08-2.13 1.77-2.13h1.26c.69 0 1.28.78 1.77 2.13.49 1.35.47 7.3 6.02 12.05 3.19 2.73 7.62 3.91 11.72 3.91 2.99 0 5.8-.62 7.84-1.74 4.85-2.64 6.78-8.16 7.39-11.9.61-3.77 2.3-3.96 2.3-3.96l.2-5.94s-1.39 0-2.57-.29c-1.04-.25-6.78-1.5-12.22-1.5zm-3.4 23.32c-1.99 0-3.69-.29-5.31-.76-2.83-.82-5.06-2.51-6.81-5.43-1.76-2.93-2.37-5.93-2.13-8.14.24-2.21 2.36-4.05 5.09-4.97 2.74-.92 8.21-1.38 10.09-1.46.75-.03 1.54-.05 2.33-.05 3.52 0 7.23.43 8.77 2.44 1.88 2.45 1.41 7.77.07 11.09-1.33 3.3-3.47 6.07-7.16 6.78-1.85.34-3.47.5-4.94.5zm-39.4 0c-1.47 0-3.09-.16-4.95-.51-3.69-.7-5.83-3.48-7.16-6.78-1.33-3.32-1.8-8.64.07-11.09 1.54-2 5.25-2.43 8.77-2.44.8 0 1.58.02 2.33.05 1.88.08 7.35.54 10.09 1.46 2.74.92 4.85 2.76 5.09 4.97.24 2.2-.37 5.2-2.13 8.14-1.75 2.92-3.98 4.61-6.81 5.43-1.61.48-3.31.77-5.3.77z" fill="#070201" stroke-width="none" opacity="1"></path></g></g></g></g></g><rect id="svga-credit-rect" width="200" height="15" x="0" y="185" fill="#ecf0f1" opacity="0.5" style="display: none;"></rect><text id="svga-credit-text" font-family="Avenir Next, Roboto, Helvetica, Arial, sans-serif" font-size="10px" text-anchor="start" font-weight="400" size="10px" anchor="start" weight="400" fill="#333333" x="33.40447998046875" y="182.60824704170227" style="display: none;"><tspan id="SvgjsTspan12239" dy="13" x="33.40447998046875">Created on AvatarMaker.com</tspan></text></g><defs id="SvgjsDefs12186"><linearGradient id="SvgjsLinearGradient12492" x1="80.8483" y1="78.7842" x2="80.8483" y2="101.3287" gradientUnits="userSpaceOnUse" class="svga-on-canvas-glasses-gradient-single-0-null"><stop id="SvgjsStop12493" stop-opacity="1" stop-color="#9bc2cf" offset="0" ></stop><stop id="SvgjsStop12494" stop-opacity="0" stop-color="#6086c4" offset="1" ></stop></linearGradient><linearGradient id="SvgjsLinearGradient12496" x1="-19.4949" y1="78.7842" x2="-19.4949" y2="101.3287" gradientTransform="matrix(-1 0 0 1 100 0)" gradientUnits="userSpaceOnUse" class="svga-on-canvas-glasses-gradient-single-1-null"><stop id="SvgjsStop12497" stop-opacity="1" stop-color="#9bc2cf" offset="0" ></stop><stop id="SvgjsStop12498" stop-opacity="0" stop-color="#6086c4" offset="1" ></stop></linearGradient></defs></svg>